<svg id="Layer_1" data-name="Layer 1" xmlns="http://www.w3.org/2000/svg" viewBox="0 0 80.2 317.08"><defs><style>.cls-1{fill:#fff;stroke-miterlimit:10;}.cls-1,.cls-2{stroke:#000;}.cls-2{fill:none;stroke-linecap:round;stroke-linejoin:round;stroke-opacity:0.7;}</style></defs><g id="graphpaper-6bca51aa"><g id="axis-6bca51aa"><path class="cls-1" d="M-105.72-115.22" transform="translate(-101.12 -26.39)"/></g></g><g id="expressions-6bca51aa"><g id="sketch-6bca51aa"><path class="cls-1" d="M-105.72-115.22" transform="translate(-101.12 -26.39)"/><path class="cls-2" d="M180.82,343h0L178.94,340l-2.54-3.17-3.83-3.9-5.25-4.15L160.66,325l-7.86-3-4.25-1-4.38-.65-4.43-.25-4.4.14-4.31.54-4.12.91-7.5,2.75-6.2,3.57-4.77,3.85-3.38,3.58-3.39,5,5.49-6.27,4.3-3.93,5.73-4.14,7.09-3.81,8.17-2.92,8.77-1.6,4.42-.21,4.35.18,4.19.58,4,.95,7.1,2.8,5.73,3.6,4.29,3.85,2.95,3.54,1.78,2.79.81,2.05-.19,0-3.24-3.18-8.15-7.21L163,323.4l-7.49-3.78-8.43-2.87-8.83-1.52-4.38-.17-4.26.23-4,.62-3.8,1-6.66,2.85-5.25,3.63L106,327.21l-2.54,3.52-1.43,2.74-.45,1.62.45.32,1.43-1,6.37-5.59,5.25-4,6.66-4.13,7.85-3.75,8.64-2.81,8.83-1.44,4.3-.13,4.13.27,3.89.66,3.6,1,6.21,2.9,4.77,3.66,3.38,3.84,2.15,3.49,1.09,2.68.15,1.56-.77.25-14.75-10.77-7.1-4.13L150,314.27l-8.77-2.75-8.77-1.37-4.19-.09-4,.31-3.7.7-3.39,1-5.73,3-4.3,3.68-3,3.83L102.43,326l-.76,2.63.15,1.5,1.09.19,2.15-1.16,8.15-5.8,6.2-4,7.5-4.12,8.43-3.68,8.83-2.68,8.63-1.29,4.06-.05,3.8.35,3.49.73,3.17,1.08,5.25,3,3.83,3.7,2.54,3.83,1.42,3.42.46,2.58-.11.88-.35.56-1.42.11-6.37-3.68-11.91-7.47-7.86-4.11-8.63-3.64-8.83-2.62-8.43-1.21H123l-3.6.39-3.27.77-2.93,1.12-4.77,3.05-3.38,3.72L102.91,318l-1.09,3.39-.15,2.53.26.84.5.53,1.78.05,3-1.3,17.12-10,8.17-4.1,8.77-3.6L150,303.7l8.16-1.13,3.71,0,3.39.43,3,.8L171,305l4.29,3.1,2.95,3.74,1.78,3.81.77,3.36-.15,2.47-.42.82-.67.49-2.15,0L174,321.39l-18.47-10.15-8.43-4.1-8.83-3.55-8.64-2.49-7.85-1.05-3.5.07-3.16.47-2.81.84-2.44,1.18L106,305.75l-2.54,3.76-1.43,3.8-.45,3.32.45,2.42,1.43,1.24,2.54-.09,3.83-1.42,11.91-6.19,16.49-8.15,8.83-3.51,8.43-2.43,7.49-1,3.28.11,2.93.51,2.56.88,2.21,1.21,3.38,3.19,2.15,3.77,1.09,3.79.15,3.28-.27,1.32-.5,1.05-1.78,1.18-2.95-.16L171,316.17l-5.73-2.69L150,305.8l-8.77-4.06-8.77-3.47-8.17-2.36-7.09-.89-3,.15-2.69.55-2.33.91-2,1.24-3,3.23-1.78,3.79-.76,3.78.15,3.24.42,1.3.67,1,2.15,1.1,3.38-.22,4.77-1.56,31-14.51,8.63-3.43,7.86-2.29,6.66-.81,2.8.19,2.45.59,2.08.95,1.75,1.27,1.42,1.53,1.12,1.74,1.42,3.8.46,3.76-.46,3.21-.58,1.27-.84,1-1.12.68-1.42.36-3.83-.3-5.25-1.62-6.66-2.79-25.32-11.8L126.91,293l-7.5-2.23-6.2-.73-2.57.24-2.2.62-3.38,2.29-1.22,1.56-.93,1.75-1.09,3.81-.15,3.75.76,3.17.76,1.24,1,1,1.32.65,1.63.32,4.3-.36,5.73-1.69,15.26-6.54L150,293.64l8.16-3.33,7.1-2.16,5.73-.65,2.32.28,2,.66,2.95,2.35,1,1.58.75,1.77.77,3.82-.15,3.73-1.09,3.13L177.38,307l-1.53.62-1.85.29-4.77-.44L163,305.69l-7.49-2.9-17.26-7.86-16.49-7.27-6.66-2.09-5.25-.56-2.09.31L106,286l-1.42,1.06-1.12,1.35-1.43,3.39-.45,3.83.45,3.71.59,1.65.84,1.44,2.54,2.08,1.74.59,2.09.25,5.25-.5,6.66-1.81,7.85-2.95,8.64-3.76,17.26-8.1L163,285l6.21-2,4.77-.49,1.85.36,1.53.74,1.22,1.09.93,1.38,1.09,3.43.15,3.83L180,297l-.75,1.63-1,1.41-2.95,2-2,.55-2.32.23-5.73-.58-7.1-1.87-8.16-3-32.8-15.06-5.73-1.94-4.3-.4-1.63.39-1.32.78-1,1.12-.76,1.41-.76,3.46.15,3.84,1.09,3.67.93,1.61,1.22,1.39,3.38,2,4.77.7,6.2-.64,7.5-1.94,8.43-3,8.83-3.83,23.15-11.18,5.25-1.87,3.83-.33,1.42.44,1.12.81.84,1.15.58,1.44.46,3.5-.46,3.84-1.42,3.64-2.54,3-3.83,1.91-5.25.64-6.66-.71-7.86-2-8.63-3.1-8.83-3.85L113.21,277.1l-4.77-1.79-3.38-.25-1.22.48-.93.85-.67,1.18-.42,1.47-.15,3.52.76,3.85,1.78,3.62,3,2.91,2,1.07,2.33.78,5.73.57,7.09-.78,8.17-2.06,8.77-3.14L150,285.5l21-11,4.29-1.72,1.64-.28,1.31.12L180,274l.5,1.21.27,1.49-.15,3.56-1.09,3.85-2.15,3.59L174,290.55l-2.21,1.05-2.56.74-6.21.5-7.49-.84-8.43-2.12-8.83-3.19-8.64-3.91-7.85-4.14-11.91-6.8L106,270.2l-1.42-.24-1.12.16-.84.55-.59.92-.45,2.76.45,3.59,1.43,3.85,2.54,3.56,3.83,2.82,2.44,1,2.81.71,6.66.44,7.85-.91,8.64-2.19L147.1,284l8.43-3.93,21.85-12.42,1.22-.2.93.2.67.59.42,1,.15,2.81-.77,3.61-1.78,3.85L175.27,283,171,285.78l-5.73,1.66-7.1.37-8.16-1-8.77-2.25-8.77-3.28-8.17-3.95-7.09-4.14-10-6.61-3-1.5-1-.16-.76.25-.5.63-.26,1,.15,2.87,1.09,3.63,2.15,3.85,3.38,3.51,4.77,2.72,6.2,1.6,7.5.3,8.43-1.05,8.83-2.31,8.63-3.32,7.86-4,18.28-12.07.84-.12.58.29.35.67.11,1-.46,2.92L178.94,271l-2.54,3.84-3.83,3.48L167.32,281l-6.66,1.54-7.86.23-8.63-1.12-8.83-2.36-8.43-3.37-7.5-4-6.2-4.13-8.15-6.42L102.91,260l-.67-.08-.42.32-.15,1.77.76,3,1.78,3.68,3,3.84,4.3,3.44,5.73,2.62,7.09,1.48,8.17.16,8.77-1.18,8.77-2.42,8.16-3.41,7.1-4,5.73-4.12,9-7.59.5,0,.27.36-.15,1.84-1.09,3-2.15,3.7L174,270.21l-4.77,3.42L163,276.19l-7.49,1.41-8.43.09-8.83-1.25L129.63,274l-7.85-3.45-6.66-4-5.25-4.11-7.8-7.4h-.34l-.11.4.45,1.91,1.43,3.07,2.54,3.72,3.83,3.82,5.25,3.38,6.66,2.52,7.85,1.34,8.64,0,8.83-1.32,8.43-2.53,7.49-3.5,6.21-4.05,4.77-4.1,6.81-7.17,0,.44-.77,2L178.22,258l-2.95,3.74L171,265.57l-5.73,3.35-7.1,2.46L150,272.66l-8.77,0-8.77-1.39-8.17-2.59-7.09-3.53-5.73-4.06-4.3-4.09-5.54-7,.2.57,3.24,5.2,3.38,3.76,4.77,3.8,6.2,3.31,7.5,2.41,8.43,1.21,8.83-.11,8.63-1.45,7.86-2.64,6.66-3.57,5.25-4.08,3.83-4.07,2.54-3.5,1.88-3.35-1.88,2.76-2.54,3.2-3.83,3.78-5.25,3.78-6.66,3.27-7.86,2.35-8.63,1.16-8.83-.19L126.91,266l-7.5-2.7-6.2-3.61-4.77-4.09-3.38-4.06-2.15-3.45-1.09-2.34-.15-.86.76.72,4.73,5.43,4.3,3.79,5.73,3.77,7.09,3.23,8.17,2.3,8.77,1.08L150,265l8.16-1.58,7.1-2.75L171,257l4.29-4.11,2.95-4,1.78-3.41.77-2.27,0-.59-.19-.19L174,248.72l-4.77,3.81L163,256.28l-7.49,3.2-8.43,2.24-8.83,1-8.64-.32-7.85-1.65-6.66-2.8-5.25-3.68L106,250.17l-2.54-4-1.43-3.36-.45-2.2.11-.55.34-.15,1.43.88,6.37,5.63,5.25,3.82,6.66,3.74,7.85,3.15,8.64,2.18,8.83,1,8.43-.39,7.49-1.71,6.21-2.86,4.77-3.71,3.38-4.12,2.15-4,1.09-3.32.15-2.13-.27-.51-.5-.11-1.78,1-2.95,2.37-10,7.19-7.1,3.72L150,254.74l-8.77,2.13-8.77.88-8.17-.45-7.09-1.77-5.73-2.92-4.3-3.74-3-4.13-1.78-4-.76-3.27.15-2.06.42-.47.67-.07,2.15,1,8.15,5.84,6.2,3.83,7.5,3.7,8.43,3.07,8.83,2.07,8.63.82,7.86-.53,6.66-1.83,5.25-3,3.83-3.77,2.54-4.14,1.42-4,.46-3.22-.11-1.17-.35-.82-.58-.43-.84,0-2.54,1.12L172.57,236l-11.91,7.28L152.8,247l-8.63,3-8.83,2-8.43.75-7.5-.6-3.27-.79-2.93-1.1-4.77-3-3.38-3.8-2.15-4.14-1.09-3.94-.15-3.16.26-1.14.5-.78.76-.39h1l3,1.2,10,6,7.09,3.85,8.17,3.66,8.77,3,8.77,1.95,8.16.68,7.1-.66,3-.83,2.69-1.13,4.29-3.06,2.95-3.83,1.78-4.15.77-3.91-.15-3.11-.42-1.1-.67-.74-.93-.35-1.22.05L174,228.71l-18.47,10-8.43,3.63-8.83,2.94-8.64,1.89-7.85.62-6.66-.73-2.81-.86L109.87,245,106,241.88,103.5,238l-1.43-4.14-.45-3.88.45-3.06.59-1.07.84-.7,1.12-.31L106,225l3.83,1.35,19.76,10.06,8.64,3.61,8.83,2.89,8.43,1.83,7.49.55,6.21-.8,2.56-.89,2.21-1.2,3.38-3.15,2.15-3.89,1.09-4.15.15-3.85-.27-1.64-.5-1.36-.75-1-1-.67-1.31-.26-1.64.13L171,223.9,150,234l-8.77,3.59-8.77,2.85-8.17,1.76-7.09.48-5.73-.86-2.33-.93-2-1.22-3-3.2-1.78-3.92-.76-4.14.15-3.82.42-1.62.67-1.33,2.15-1.62,1.52-.22,1.86.17,4.77,1.5,22.13,10.22,8.83,3.56,8.63,2.8,7.86,1.7,6.66.42,2.8-.31,2.45-.63,3.83-2.2,1.42-1.52,1.12-1.73,1.42-3.94.46-4.15-.46-3.78-.58-1.59-.84-1.3-1.12-1-1.42-.58-1.75-.19-2.08.21-5.25,1.58L160.66,222l-16.49,7.47L135.34,233l-8.43,2.75-7.5,1.64-6.2.34-2.57-.33-2.2-.67-3.38-2.26-1.22-1.54-.93-1.76-1.09-4-.15-4.14.76-3.75.76-1.56,1-1.27,1.32-.92,1.63-.55,2-.14,2.33.25,5.73,1.65L150,230.6l8.16,2.7,7.1,1.58,5.73.28,2.32-.37,2-.7,2.95-2.32,1-1.57.75-1.77.77-4-.15-4.13-1.09-3.72-.93-1.53-1.22-1.24-1.53-.88-1.85-.51-2.21-.1-2.56.29L163,214.34l-7.49,2.94-17.26,7.51-8.64,3.47-7.85,2.65-6.66,1.51-5.25.21-2.09-.4-1.74-.74-2.54-2.38-.84-1.58-.59-1.8-.45-4,.45-4.13,1.43-3.68,1.12-1.51,1.42-1.2,1.74-.85,2.09-.46,2.44-.07,2.81.34,6.66,1.79,16.49,6.68,17.26,7.27,7.49,2.6,6.21,1.45,4.77.14,1.85-.44,1.53-.76,1.22-1.08.93-1.36,1.09-3.43.15-4-.77-4.12-.75-1.91-1-1.73-1.31-1.48-1.64-1.17-2-.81-2.32-.42-5.73.35-7.1,1.86-8.16,3-17.54,7.53-15.26,6-5.73,1.38-4.3.07-1.63-.47-1.32-.8-1-1.1-.76-1.39-.76-3.47.15-4,1.09-4.1.93-1.91,1.22-1.7,3.38-2.58,2.2-.78,2.57-.38,6.2.44,7.5,1.92,8.43,3.09,32,13.41,5.25,1.32h3.83l2.54-1.34.84-1.14.58-1.41.46-3.51-.46-4.06-1.42-4.09-1.12-1.89-1.42-1.68-1.75-1.42-2.08-1.09-2.45-.74-2.8-.34-6.66.51-7.86,2L144.17,208l-31,13.33-4.77,1.26-3.38-.07-2.15-1.4-.67-1.17-.42-1.44-.15-3.54.76-4.07,1.78-4.09,1.32-1.86,1.63-1.66,2-1.39,2.33-1.06,2.69-.7,3-.3,7.09.6,8.17,2.06,8.77,3.17L150,209.4l15.26,7.09,5.73,2.39,4.29,1.19,2.95-.13,1.78-1.47.5-1.2.27-1.46-.15-3.59-1.09-4.08-2.15-4.07L174,200.59l-2.21-1.36-2.56-1-2.93-.65-3.28-.26-7.49.67-8.43,2.13-8.83,3.22-28.4,13.16L106,217.59l-2.54-.2-.84-.61-.59-.92-.45-2.72.45-3.62,1.43-4.1,2.54-4,3.83-3.44,2.44-1.33,2.81-1,3.16-.61,3.5-.22,7.85.75,8.64,2.2L147.1,201l8.43,3.79L174,214.05l3.38,1.06,2.15-.27.67-.64.42-1,.15-2.77-.77-3.66-1.78-4.11-2.95-4-4.29-3.4L168.29,194l-3-.95-3.39-.58-3.71-.18-8.16.83-8.77,2.27-8.77,3.3-8.17,3.8-17.12,9.16-3,1-1.78-.34-.5-.67-.26-1,.15-2.83,1.09-3.69,2.15-4.11,3.38-4,4.77-3.35,2.93-1.26,3.27-.92,3.6-.53,3.9-.14,8.43.91,8.83,2.33,8.63,3.34,7.86,3.82,15.74,9,2.54.93.84,0,.58-.38.35-.7.11-1-.46-2.87-1.42-3.73-2.54-4.12-3.83-4-5.25-3.3-3.17-1.22-3.49-.88-3.8-.5-4.06-.1-8.63,1-8.83,2.39L126.91,194l-7.5,3.83-6.2,3.71-8.15,5.2-2.15.87-1.09-.48-.15-1.79.76-2.93,1.78-3.76,3-4.13,4.3-4,5.73-3.25,3.39-1.2,3.7-.84,4-.46,4.19-.05,8.77,1.07L150,188.3l8.16,3.41,7.1,3.84,13,8.79,1.78.8.77-.55-.15-1.85-1.09-3L177.38,196,174,191.83l-4.77-4L163,184.69l-3.6-1.16-3.89-.81-4.13-.42h-4.3l-8.83,1.14L129.63,186l-7.85,3.44-6.66,3.85-5.25,3.67-6.37,5-1.43.73-.34-.14-.11-.48.45-1.91,1.43-3,2.54-3.82,3.83-4.14,5.25-3.93,6.66-3.14,3.8-1.13,4-.76,4.26-.38,4.38,0L147.1,181l8.43,2.57,7.49,3.48,6.21,3.85,11.39,9.21.19-.18,0-.51-.77-2-1.78-3.08-2.95-3.84L171,186.4l-5.73-3.9-7.1-3.09-4-1.09-4.19-.73-4.35-.33-4.42.06-8.77,1.3-8.17,2.63-7.09,3.52-5.73,3.84-4.3,3.63-5.49,5.39.15-.76,3.24-5.17,3.38-3.87,4.77-4.14,6.2-3.87,7.5-3,4.12-1.06,4.31-.69,4.4-.29,4.43.11,4.38.5,4.25.87,7.86,2.69,6.66,3.54,5.25,3.85,3.83,3.6,4.42,5.22-1.88-2.93L176.4,189l-3.83-3.9L167.32,181l-6.66-3.84-7.86-3-4.25-1-4.38-.65-4.43-.25-4.4.14-4.31.54-4.12.91-7.5,2.74-6.2,3.58L108.44,184l-3.38,3.57-3.39,5,5.49-6.27,4.3-3.93,5.73-4.14,7.09-3.81,8.17-2.93,8.77-1.59,4.42-.21,4.35.18,4.19.58,4,1,7.1,2.79,5.73,3.61,4.29,3.85,2.95,3.54L180,188l.81,2.05-.19,0-3.24-3.18-8.15-7.21L163,175.55l-7.49-3.78-8.43-2.87-8.83-1.52-4.38-.17-4.26.23-4,.62-3.8,1-6.66,2.85-5.25,3.63L106,179.36l-2.54,3.52-1.43,2.74-.45,1.62.45.32,1.43-1,6.37-5.59,5.25-4,6.66-4.13,7.85-3.75,8.64-2.81,8.83-1.44,4.3-.13,4.13.27,3.89.66,3.6,1,6.21,2.9,4.77,3.66,3.38,3.84,2.15,3.49,1.09,2.68.15,1.56L180,185l-14.75-10.77-7.1-4.13L150,166.42l-8.77-2.75-8.77-1.37-4.19-.09-4,.31-3.7.7-3.39,1-5.73,3-4.3,3.67-3,3.84-1.78,3.46-.76,2.63.15,1.5,1.09.18,2.15-1.16,8.15-5.79,6.2-4,7.5-4.12,8.43-3.68,8.83-2.68,8.63-1.29,4.06-.05,3.8.35,3.49.73,3.17,1.08,5.25,3,3.83,3.7,2.54,3.83,1.42,3.42.46,2.58-.11.88-.35.56-1.42.11-6.37-3.68-11.91-7.47-7.86-4.11-8.63-3.64-8.83-2.62-8.43-1.21H123l-3.6.39-3.27.77-2.93,1.11-4.77,3.06-3.38,3.72-2.15,3.82-1.09,3.39-.15,2.53.26.84.5.53,1.78.05,3-1.3,17.12-10,8.17-4.1,8.77-3.6,8.77-2.55,8.16-1.13,3.71,0,3.39.43,3,.8,2.69,1.15,4.29,3.1,2.95,3.74,1.78,3.81.77,3.36-.15,2.47-.42.82-.67.49-2.15,0L174,173.54l-18.47-10.15-8.43-4.1-8.83-3.55-8.64-2.49-7.85-1.06-3.5.08-3.16.47-2.81.84-2.44,1.18L106,157.9l-2.54,3.76-1.43,3.8-.45,3.32.45,2.42,1.43,1.24,2.54-.09,3.83-1.42,11.91-6.19,16.49-8.15,8.83-3.51,8.43-2.43,7.49-1,3.28.11,2.93.51,2.56.88,2.21,1.21,3.38,3.19,2.15,3.77,1.09,3.79.15,3.28-.27,1.32-.5,1L178.22,170l-2.95-.16L171,168.32l-5.73-2.69L150,158l-8.77-4.06-8.77-3.47-8.17-2.36-7.09-.9-3,.16-2.69.55-2.33.91-2,1.24-3,3.23L102.43,157l-.76,3.77.15,3.25.42,1.3.67,1,2.15,1.1,3.38-.22,4.77-1.56,31-14.51,8.63-3.43,7.86-2.29,6.66-.81,2.8.19,2.45.59,2.08.95,1.75,1.27,1.42,1.53,1.12,1.74,1.42,3.8.46,3.76-.46,3.21-.58,1.27-.84,1-1.12.68-1.42.36-3.83-.3-5.25-1.62-6.66-2.79-25.32-11.8-8.43-3.38-7.5-2.23-6.2-.73-2.57.24-2.2.62-3.38,2.29-1.22,1.56-.93,1.75-1.09,3.81-.15,3.75.76,3.16.76,1.25,1,1,1.32.65,1.63.32,4.3-.37,5.73-1.68,15.26-6.54L150,145.79l8.16-3.33,7.1-2.16,5.73-.65,2.32.28,2,.66,2.95,2.35,1,1.58.75,1.77.77,3.82-.15,3.73L179.53,157l-2.15,2.14-1.53.62L174,160l-4.77-.44L163,157.84l-7.49-2.9-17.26-7.86-16.49-7.27-6.66-2.09-5.25-.56-2.09.31-1.74.7-1.42,1.06-1.12,1.35L102.07,144l-.45,3.83.45,3.71.59,1.65.84,1.44,2.54,2.08,1.74.59,2.09.25,5.25-.5,6.66-1.81,7.85-3,8.64-3.76,17.26-8.1,7.49-3.24,6.21-2,4.77-.49,1.85.36,1.53.74,1.22,1.08.93,1.39,1.09,3.43.15,3.83-.77,3.69-.75,1.63-1,1.41-2.95,2-2,.55L171,155l-5.73-.57-7.1-1.87-8.16-3-32.8-15.06-5.73-1.94-4.3-.4-1.63.39-1.32.78-1,1.12-.76,1.41-.76,3.46.15,3.84,1.09,3.67.93,1.61,1.22,1.39,3.38,2,4.77.71,6.2-.64,7.5-1.94,8.43-3,8.83-3.83,23.15-11.18,5.25-1.87,3.83-.33,1.42.44,1.12.81.84,1.15.58,1.44.46,3.49-.46,3.85-1.42,3.64-2.54,3-3.83,1.91-5.25.64-6.66-.71-7.86-2-8.63-3.1-8.83-3.85-22.13-11.11-4.77-1.79-3.38-.25-1.22.48-.93.85-.67,1.18-.42,1.47-.15,3.52.76,3.85,1.78,3.62,3,2.91,2,1.07,2.33.78,5.73.57,7.09-.78,8.17-2.06,8.77-3.14,8.77-3.88,21-11,4.29-1.72,1.64-.28,1.31.12,1.78,1.4.5,1.21.27,1.49-.15,3.56-1.09,3.85-2.15,3.59L174,142.7l-2.21,1.05-2.56.74L163,145l-7.49-.84L147.1,142l-8.83-3.19-8.64-3.91-7.85-4.14L109.87,124,106,122.35l-1.42-.25-1.12.17-.84.55-.59.92-.45,2.76.45,3.59,1.43,3.85L106,137.5l3.83,2.82,2.44,1,2.81.71,6.66.44,7.85-.92,8.64-2.18,8.83-3.23,8.43-3.93,21.85-12.42,1.22-.2.93.2.67.59.42,1,.15,2.81-.77,3.61-1.78,3.85-2.95,3.54L171,137.93l-5.73,1.66-7.1.37L150,139l-8.77-2.25-8.77-3.28-8.17-3.95-7.09-4.14-10-6.61-3-1.5-1-.16-.76.25-.5.63-.26,1,.15,2.86,1.09,3.64,2.15,3.85,3.38,3.51,4.77,2.71,6.2,1.61,7.5.29,8.43-1,8.83-2.31,8.63-3.32,7.86-4,18.28-12.07.84-.12.58.29.35.67.11,1-.46,2.92-1.42,3.66L176.4,127l-3.83,3.48-5.25,2.67-6.66,1.54-7.86.23-8.63-1.12-8.83-2.36-8.43-3.37-7.5-4-6.2-4.13-8.15-6.43-2.15-1.33-.67-.08-.42.32-.15,1.77.76,3,1.78,3.68,3,3.84,4.3,3.44,5.73,2.62,7.09,1.48,8.17.16,8.77-1.19,8.77-2.41,8.16-3.42,7.1-4,5.73-4.12,9-7.59.5,0,.27.36-.15,1.84-1.09,3-2.15,3.7L174,122.36l-4.77,3.41L163,128.34l-7.49,1.41-8.43.09-8.83-1.25-8.64-2.47-7.85-3.45-6.66-4-5.25-4.11-7.8-7.4h-.34l-.11.4.45,1.91,1.43,3.07,2.54,3.72,3.83,3.82,5.25,3.38,6.66,2.52,7.85,1.34,8.64,0L147.1,126l8.43-2.53L163,120l6.21-4,4.77-4.1,6.81-7.17,0,.44-.77,2-1.78,3.12-2.95,3.74L171,117.72l-5.73,3.35-7.1,2.46L150,124.81l-8.77,0-8.77-1.38-8.17-2.59-7.09-3.53-5.73-4.06-4.3-4.09-5.54-7,.2.58,3.24,5.2,3.38,3.76,4.77,3.8,6.2,3.31,7.5,2.41,8.43,1.21,8.83-.11,8.63-1.45,7.86-2.64,6.66-3.57,5.25-4.08,3.83-4.07,2.54-3.5,1.88-3.35-1.88,2.76-2.54,3.2-3.83,3.77-5.25,3.79-6.66,3.27-7.86,2.35-8.63,1.15-8.83-.18-8.43-1.51-7.5-2.7-6.2-3.61-4.77-4.09-3.38-4.06-2.15-3.45-1.09-2.34-.15-.87.76.73,4.73,5.43,4.3,3.79,5.73,3.77,7.09,3.23,8.17,2.3,8.77,1.08,8.77-.25,8.16-1.58,7.1-2.75,5.73-3.64,4.29-4.11,2.95-4L180,97.59l.77-2.27,0-.59-.19-.19L174,100.87l-4.77,3.81L163,108.43l-7.49,3.2-8.43,2.24-8.83,1-8.64-.32-7.85-1.65-6.66-2.8-5.25-3.68L106,102.32l-2.54-4-1.43-3.36-.45-2.2.11-.55.34-.16,1.43.89,6.37,5.63,5.25,3.82,6.66,3.74,7.85,3.15,8.64,2.18,8.83,1,8.43-.39L163,110.3l6.21-2.86,4.77-3.71,3.38-4.12,2.15-4,1.09-3.32.15-2.13-.27-.51-.5-.11-1.78,1-2.95,2.37-10,7.19-7.1,3.72L150,106.89,141.22,109l-8.77.88-8.17-.45-7.09-1.77-5.73-2.92-4.3-3.74-3-4.13-1.78-4-.76-3.27.15-2.06.42-.47.67-.07,2.15,1,8.15,5.84,6.2,3.83,7.5,3.7,8.43,3.07,8.83,2.07,8.63.82,7.86-.53,6.66-1.83,5.25-3,3.83-3.77,2.54-4.14,1.42-4,.46-3.22-.11-1.17-.35-.82-.58-.43-.84,0-2.54,1.12-3.83,2.49-11.91,7.28-7.86,3.68-8.63,3-8.83,2-8.43.75-7.5-.6-3.27-.79-2.93-1.1-4.77-3-3.38-3.8-2.15-4.14-1.09-3.94-.15-3.16.26-1.14.5-.78.76-.39h1l3,1.2,10,6,7.09,3.85,8.17,3.66,8.77,3,8.77,2,8.16.68,7.1-.66,3-.83L171,99.78l4.29-3.06,2.95-3.83L180,88.74l.77-3.91-.15-3.11-.42-1.1-.67-.74-.93-.35-1.22,0L174,80.86l-18.47,10-8.43,3.63-8.83,2.94-8.64,1.89-7.85.62-6.66-.73-2.81-.86-2.44-1.17L106,94l-2.54-3.86L102.07,86l-.45-3.88.45-3.06.59-1.07.84-.7,1.12-.31,1.42.09,3.83,1.35,19.76,10.06,8.64,3.61L147.1,95l8.43,1.83,7.49.55,6.21-.8,2.56-.89L174,94.5l3.38-3.15,2.15-3.89,1.09-4.15.15-3.85-.27-1.64-.5-1.36-.75-1-1-.67-1.31-.26-1.64.13L171,76.05,150,86.19l-8.77,3.59-8.77,2.84-8.17,1.77-7.09.48L111.46,94l-2.33-.92-2-1.22-3-3.2-1.78-3.92-.76-4.14.15-3.82.42-1.62.67-1.33,2.15-1.62,1.52-.23,1.86.18,4.77,1.5,22.13,10.22,8.83,3.56,8.63,2.8,7.86,1.7,6.66.41,2.8-.3,2.45-.63,3.83-2.2,1.42-1.52L178.94,86,180.36,82l.46-4.15-.46-3.78-.58-1.59-.84-1.3-1.12-1-1.42-.58-1.75-.19-2.08.21-5.25,1.58-6.66,2.83-16.49,7.47-8.83,3.53-8.43,2.75-7.5,1.64-6.2.34-2.57-.33-2.2-.67-3.38-2.26L103.84,85l-.93-1.76-1.09-4-.15-4.14.76-3.75.76-1.56,1-1.27,1.32-.92,1.63-.55,2-.14,2.33.25,5.73,1.65L150,82.75l8.16,2.7,7.1,1.58,5.73.28,2.32-.37,2-.7,2.95-2.32,1-1.57.75-1.77.77-4-.15-4.13-1.09-3.72-.93-1.53L177.38,66l-1.53-.88L174,64.58l-2.21-.1-2.56.29L163,66.49l-7.49,2.94-17.26,7.51-8.64,3.47-7.85,2.65-6.66,1.51-5.25.21-2.09-.4L106,83.64l-2.54-2.38-.84-1.58-.59-1.8-.45-4,.45-4.13,1.43-3.68,1.12-1.51,1.42-1.2,1.74-.85,2.09-.46,2.44-.07,2.81.34,6.66,1.79,16.49,6.68,17.26,7.27,7.49,2.6,6.21,1.45,4.77.14,1.85-.44,1.53-.77L178.6,80l.93-1.36,1.09-3.43.15-4L180,67l-.75-1.92-1-1.73-1.31-1.47-1.64-1.17-2-.81L171,59.52l-5.73.35-7.1,1.86-8.16,3L132.45,72.3l-15.26,6-5.73,1.39-4.3.07-1.63-.47-1.32-.8-1-1.1L102.43,76l-.76-3.47.15-4,1.09-4.1.93-1.91,1.22-1.7,3.38-2.58,2.2-.78,2.57-.38,6.2.43,7.5,1.93,8.43,3.09,32,13.41,5.25,1.32h3.83l2.54-1.34.84-1.14.58-1.41.46-3.51-.46-4.06-1.42-4.09-1.12-1.89-1.42-1.68-1.75-1.42-2.08-1.1-2.45-.73-2.8-.34-6.66.51-7.86,2-8.63,3.13-31,13.33-4.77,1.26-3.38-.07-2.15-1.4-.67-1.17-.42-1.44-.15-3.54.76-4.07,1.78-4.09,1.32-1.86,1.63-1.66,2-1.39L111.46,53l2.69-.7,3-.3,7.09.59,8.17,2.07,8.77,3.17L150,61.55l15.26,7.09L171,71l4.29,1.19,2.95-.13L180,70.62l.5-1.2.27-1.47-.15-3.58-1.09-4.08-2.15-4.07L174,52.74l-2.21-1.36-2.56-1-2.93-.65L163,49.44l-7.49.67-8.43,2.13-8.83,3.22-28.4,13.15L106,69.74l-2.54-.2-.84-.61-.59-.93-.45-2.71.45-3.62,1.43-4.1,2.54-4,3.83-3.44,2.44-1.33,2.81-1,3.16-.61,3.5-.22,7.85.75,8.64,2.2,8.83,3.26,8.43,3.79L174,66.2l3.38,1.06,2.15-.27.67-.64.42-1,.15-2.78L180,59l-1.78-4.11-2.95-4L171,47.42l-2.69-1.29-3-1-3.39-.58-3.71-.18-8.16.83-8.77,2.27-8.77,3.3-8.17,3.8-17.12,9.16-3,1-1.78-.34-.5-.67-.26-1,.15-2.83,1.09-3.69,2.15-4.12,3.38-4,4.77-3.35,2.93-1.26,3.27-.92,3.6-.53,3.9-.14,8.43.91,8.83,2.33,8.63,3.34,7.86,3.81,15.74,9,2.54.93.84,0,.58-.38.35-.71.11-1-.46-2.87-1.42-3.73-2.54-4.12-3.83-4-5.25-3.3-3.17-1.22L160.66,40l-3.8-.5-4.06-.1-8.63,1-8.83,2.39-8.43,3.38L119.41,50l-6.2,3.71-8.15,5.2-2.15.87-1.09-.48-.15-1.79.76-2.93,1.78-3.76,3-4.13,4.3-4,5.73-3.25,3.39-1.2,3.7-.84,4-.46,4.19,0L141.22,38,150,40.45l8.16,3.41,7.1,3.84,13,8.79,1.78.8.77-.55-.15-1.85-1.09-3-2.15-3.79L174,44,169.23,40,163,36.84l-3.6-1.16-3.89-.81-4.13-.42h-4.3l-8.83,1.14-8.64,2.52-7.85,3.44-6.66,3.85-5.25,3.67-6.37,5-1.43.73-.34-.14-.11-.48.45-1.92,1.43-3L106,45.41l3.83-4.14,5.25-3.93,6.66-3.14,3.8-1.13,4-.77,4.26-.37,4.38,0,8.83,1.23,8.43,2.57L163,39.23l6.21,3.84,11.39,9.22.19-.18,0-.51-.77-2-1.78-3.08-2.95-3.84L171,38.55l-5.73-3.9-7.1-3.09-4-1.09L150,29.74l-4.35-.33-4.42.06-8.77,1.3-8.17,2.63-7.09,3.51-5.73,3.85-4.3,3.63-5.49,5.39.15-.76,3.24-5.17L108.44,40l4.77-4.14,6.2-3.87,7.5-3L131,27.87l4.31-.69,4.4-.29,4.43.11,4.38.5,4.25.87,7.86,2.69,6.66,3.54,5.25,3.85,3.83,3.6,4.42,5.22" transform="translate(-101.12 -26.39)"/></g></g></svg>