<svg id="Layer_1" data-name="Layer 1" xmlns="http://www.w3.org/2000/svg" viewBox="0 0 945.73 237.24"><defs><style>.cls-1{fill:#fff;stroke-miterlimit:10;}.cls-1,.cls-2{stroke:#000;}.cls-2{fill:none;stroke-linecap:round;stroke-linejoin:round;stroke-opacity:0.7;stroke-width:0.75px;}</style></defs><path class="cls-1" d="M623.25,215.6" transform="translate(-30.44 -12.56)"/><path class="cls-1" d="M623.25,215.6" transform="translate(-30.44 -12.56)"/><path class="cls-2" d="M30.81,249.43h0l17.77-13.05L66.2,217.87l9.09-12.81L83.63,190l6.89-17.14,4.84-18.66,2.36-19.55-.32-19.68-3-19L89.16,78.14,82.05,62.28,73.77,48.65,65,37.41l-8.51-8.88L42.7,17.2,35.79,13,38.33,15,49,23.69,65.68,40.61l9.2,12,8.87,14.34,7.84,16.48,6.13,18.2,3.89,19.32,1.29,19.73L101.51,160l-3.94,18.26-6.09,16.55-7.66,14.43-8.56,12.08L66.53,231,51.2,243.76l-10.41,5.6.91-1.23,8.35-7.41L65.3,225.34l18.2-24.69,8.55-15.77,7.23-17.67,5.28-19,2.88-19.67.21-19.57L105.2,90.25l-4.85-17.2-6.8-15.2L85.44,44.94,76.73,34.43l-8.61-8.18-7.84-6L49,13.75l-2.68-.81-.46.69L65.19,33.71,83,56.75l9,15,8.1,17.06,6.52,18.62L111,127l1.83,19.69L112,165.77l-3.46,17.79-5.7,15.94-7.4,13.72L87,224.56l-8.76,9-8.37,6.75L56.62,248l-4,1.35-1.8-.18,3.17-5,11.46-12.42,17-21.4L91.7,196l8.72-16.4L108,161.49l5.71-19.3,3.38-19.72.75-19.38-1.93-18.31-4.42-16.63L105,53.63,97.09,41.46l-8.65-9.78-8.68-7.5-14.86-9-5.13-1.88L56.66,13l-.9,1.16,1.37,2.76L82.06,47.69l18.22,29.14,8.33,17.6,6.88,19,4.83,19.66,2.35,19.58-.34,18.76-3,17.27L114.07,204,107,217l-8.29,10.6-8.75,8.27-8.5,6.11L73.8,246.1l-6.19,2.45-4.35.87L61,248.79V246.6l20.83-27.83,18-27.56,8.87-17,7.83-18.57,6.12-19.51,3.87-19.69,1.28-19.13-1.41-17.85-4-16-6.09-13.82L108.71,38.2l-8.56-9.06-8.73-6.83L83.2,17.5l-7.09-3-5.5-1.4-3.53.11-1.35,1.64,4.08,8.38L99.34,65.73l9.16,16.32L117,100.14l7.21,19.26,5.28,19.72,2.86,19.41.2,18.36-2.47,16.71-4.87,14.61-6.8,12.26-8.12,9.87-8.71,7.59L93,243.41,85.18,247,78.68,249l-4.75.41-2.67-1.11-.44-2.69,1.83-4.45,26.2-39.34L117,168.65l8.1-18.93,6.5-19.64L136,110.47l1.81-18.8-.88-17.34L133.43,59l-5.72-13.09-7.41-10.7-8.44-8.36-8.76-6.18-8.37-4.24-7.36-2.51-5.84-.94-3.94.58L75.8,15.65l.47,3.81L98.55,55.67l18.14,31.78L125.41,106l7.53,19.48,5.7,19.71L142,164.31l.73,17.92-2,16.1-4.42,13.9-6.47,11.53L122,232.91l-8.66,6.91-8.68,4.89-8,3.09-6.81,1.47-5.12-.06-3.1-1.58-.89-3.21,1.38-5,3.59-7.07L116.18,181l17.42-37.25L140.47,124l4.81-19.43,2.33-18.42-.35-16.78-3-14.7L139,42.32l-7.12-10-8.3-7.67-8.75-5.56-8.5-3.69-7.6-2L92.52,13l-4.34,1L86,16.63,86,21l2.29,6.33,27.41,48.19,18.06,36.35,7.82,19.63,6.11,19.62L151.52,170l1.27,17.41-1.43,15.45-4,13.19-6.11,10.79-7.68,8.44L125,241.53l-8.73,4.31-8.21,2.58-7.09,1-5.48-.52L92,246.83l-1.34-3.75.94-5.63L100,219.66l15.28-27.21,18.21-35.31L142,137.69,149.23,118l5.26-19.2,2.85-18,.18-16.18-2.48-14L150.16,39l-6.81-9.24-8.12-7-8.72-5-8.6-3.15-7.83-1.53h-6.49l-4.74,1.52-2.66,3.14-.43,4.95,1.84,7,4,9.23L133,98.67l17.08,38.91L156.6,157l4.33,18.47,1.8,16.85-.9,14.79-3.49,12.45-5.72,10.06-7.42,7.75-8.45,5.64L128,246.81l-8.37,2.07-7.35.53-5.84-1-3.93-2.57-1.78-4.3.49-6.26,2.73-8.43,11.51-24,17-32.84,17.91-38.46L157.92,112l5.69-18.9L167,75.62l.72-15.54-2-13.28-4.43-10.88-6.48-8.53L146.88,21l-8.66-4.39L129.54,14l-8-1.06-6.8.46-5.11,2-3.09,3.68-.88,5.55,1.4,7.66,9.22,22.3,15.79,31.45,18.21,37.84,15.18,38.95,4.8,18,2.32,16.25-.37,14.09-3,11.71-5.32,9.34-7.13,7.08-8.3,5-8.76,3.22-8.49,1.59-7.6.06-6.17-1.46-4.33-3.08-2.22-4.87,0-6.91,2.3-9.14,4.44-11.51,32.2-67,16.68-39.19,6.09-18.52,3.85-16.93,1.25-14.87L176.28,43.2l-4-10.15-6.12-7.84-7.69-5.72-8.56-3.82-8.73-2.14L133,12.94l-7.08.93-5.47,2.5-3.51,4.23-1.33,6.17,1,8.35,3.18,10.68L132,74.24l35,75.37,7.2,18.94,5.25,17.54,2.83,15.62.17,13.37-2.5,11-4.89,8.62-6.82,6.43-8.13,4.46-8.72,2.7-8.6,1.12L135,249l-6.49-1.94-4.71-3.61L121.12,238l-.41-7.57,1.85-9.86,10-26.84L167,119.51l14.56-37.36,4.32-16.34,1.78-14.17-.91-11.81-3.5-9.42-5.74-7.17-7.43-5.12-8.45-3.28-8.75-1.65-8.36-.12-7.35,1.39-5.82,3-3.92,4.81-1.77,6.82.5,9,2.75,11.42,4.85,13.8L166.67,136l16.23,38.09,5.68,17,3.33,14.95.71,12.64-2,10.24-4.45,7.93-6.49,5.8-7.92,3.9-8.66,2.2-8.68.64-8-.86-6.79-2.44-5.1-4.16-3.08-6.09-.86-8.26L132,217l3.61-13,12.92-32.54,35-77,6.85-17.61,4.79-15.7,2.3-13.46-.38-11.07-3-8.72-5.33-6.51-7.15-4.53-8.3-2.77L164.59,13l-8.49.34-7.6,1.88-6.15,3.54L138,24.15l-2.21,7.48.05,9.77,2.31,12.16L149,84.68l16.68,37.68,18.06,39L197.6,196l3.83,14.26,1.24,11.9-1.46,9.52-4,7.25-6.13,5.19-7.69,3.36-8.57,1.71-8.73.18L157.9,248,150.82,245l-5.46-4.73-3.49-6.74-1.32-9,1-11.32,3.19-13.71L150,183.65l15.31-36.86,18.21-39.22,15.72-35.7,5.23-15,2.82-12.73.15-10.34-2.5-8L200,19.87l-6.83-4L185,13.64l-8.73-.71-8.59.81-7.82,2.37L153.4,20.2l-4.7,6-2.64,8.17-.41,10.5,1.87,12.89,4,15.19,13.58,35.9,34.92,75.92,6.47,15.79,4.31,13.55,1.76,11.17-.93,8.8-3.51,6.6-5.75,4.6L195,248.12l-8.45,1.23-8.76-.28-8.36-1.82-7.34-3.47-5.81-5.32-3.9-7.4-1.76-9.67.51-12.06,2.76-14.42,11.55-34.79,17-39.08,17.89-37.53,13.17-30.84,3.33-12,.68-9.61-2-7.34-4.46-5.26L204.6,15l-7.93-1.77L188,13l-8.68,1.28-8,2.88-6.78,4.65-5.08,6.65-3.07,8.87-.85,11.23L157,62.2l3.63,15.85,5.63,17.72L182,134.49,215.39,205l4.78,12.83,2.28,10.43-.39,8.1-3,6-5.34,4-7.15,2.32-8.31.77-8.75-.75L181,246.37l-7.58-4-6.15-5.94L163,228.34l-2.19-10.4.06-12.8,2.32-15.1,4.46-17.13,14.21-38.2L216.5,62.37l9.89-24.91,1.22-8.89-1.47-6.68-4-4.67L216,14.32,208.29,13l-8.57.22L191,15l-8.19,3.41-7.07,5.24L170.28,31l-3.49,9.58-1.3,12,1,14.33,3.2,16.46,5.26,18.2,7,19.31,17.38,39.08,30.07,61.37,2.8,9.7.14,7.42-2.52,5.34-4.92,3.5L218,249.06l-8.13.3-8.72-1.22-8.6-2.81-7.81-4.58-6.47-6.57-4.69-8.78L171,214.26l-.39-13.52L172.48,185l4.06-17.65,6-19,16.28-39.24L231.51,45l4.3-10.52,1.75-8.2-.95-6-3.52-4.11-5.76-2.39-7.44-.82-8.46.68-8.76,2.25-8.35,3.94L187,25.67l-5.8,8L177.29,44l-1.74,12.71.52,15,2.77,17,4.88,18.61,6.69,19.53,8.1,19.69,18.15,36.89,16.2,29.69,9,20.33.67,6.76-2,4.75L236,248l-6.51,1.35-7.94-.16-8.66-1.7-8.67-3.33-8-5.17-6.77-7.23-5.07-9.49-3.06-11.87-.84-14.24,1.44-16.39,3.64-18.14,5.64-19.29,7.31-19.72,17.66-37.7,29-53.15,2.27-7.51L247,18.8l-3-3.56-5.35-1.9L231.44,13l-8.32,1.15-8.75,2.75-8.48,4.51-7.58,6.49-6.14,8.69-4.3,11-2.18,13.43.07,15.68,2.34,17.59,4.47,19L198.94,133l16.7,38.35,18.05,32.58,13.85,23.63,3.81,8.28,1.2,6.12-1.49,4.18-4,2.45-6.15.88-7.71-.63-8.58-2.18-8.72-3.87-8.2-5.78-7.05-7.9-5.45-10.22-3.47-12.61-1.29-14.93,1-17,3.22-18.56,5.27-19.51,7-19.7,8.33-19.13,18.21-33.89,15.68-25.27,8-15.92.12-4.82-2.53-3-4.94-1.42-6.85.11-8.14,1.63-8.72,3.27-8.59,5.09-7.81,7.14-6.46,9.4L198.54,51.5l-2.62,14.14L195.55,82,197.44,100l4.07,19.26,6,19.72,7.6,19.41L233,193.51l27.77,44.38,1.73,5.5-1,3.62L258,249l-5.77.42-7.45-1.1-8.46-2.68-8.75-4.44-8.35-6.4-7.33-8.6-5.79-10.95-3.88-13.34-1.73-15.6.53-17.52,2.79-18.93,4.88-19.64,6.7-19.61,8.11-18.81,9-17.35,17.88-28.49,13.13-19.08,3.29-6.19.66-4.26-2-2.51L260.92,13l-6.52.56-7.94,2.12-8.67,3.81-8.67,5.7-8,7.81-6.76,10.13L209.28,55.6l-3,14.84-.82,16.91,1.44,18.51,3.66,19.47L216.17,145l7.32,19.17L232,182.13l18.21,30,15.11,20.7,7,11.83-.43,3.1-3.05,1.47-5.37,0-7.17-1.58-8.31-3.2-8.76-5-8.48-7.06-7.57-9.31-6.13-11.69-4.28-14.06-2.17-16.23.08-18,2.35-19.22,4.49-19.72,6.37-19.44,7.87-18.42,8.84-16.8,9.2-14.7L276.3,19.15l1.19-3.69-1.5-2L272,13l-6.16,1-7.72,2.61L249.51,21l-8.73,6.32-8.19,8.51-7.05,10.86-5.43,13.25-3.46,15.51-1.27,17.46,1,18.88,3.23,19.63L224.88,151l7,18.86,8.33,17.42,9.07,15.46,17.65,24,15.13,19.06.11,2.59-2.55,1-4.95-.51-6.86-2.06-8.14-3.74L251,237.48l-8.59-7.72-7.79-10-6.46-12.42-4.67-14.76-2.6-16.83-.37-18.46,1.91-19.45,4.08-19.72,6-19.2,7.61-18,8.7-16.19L267,39.07,281.46,22.8l6-8.14-1-1.53h-3.55l-5.78,1.51-7.46,3.13-8.47,4.94-8.75,7-8.35,9.21-7.31,11.6-5.79,14-3.87,16.16-1.72,18,.55,19.19,2.8,19.71,4.9,19.46,6.71,18.48,8.11,16.87,9,14.79,9.19,12.47,25.08,27.25.64,2.09-2,.53-11-3.53-7.95-4.29-8.67-6.25L254,226.92l-8-10.76L239.26,203l-5.06-15.43-3-17.39-.81-18.83,1.46-19.62,3.66-19.63,5.67-18.9,7.33-17.49L257,60.16l9.14-13.29,17.36-19.44L297.3,14,296.85,13l-8.44,2.45-7.18,3.67-8.32,5.54-8.75,7.64-8.48,9.94-7.57,12.33L242,69.2,237.72,86l-2.16,18.4.1,19.43L238,143.51l4.5,19.24,6.38,18,7.87,16.27,8.86,14.09,18,21.08,18.76,17-5.56-1.38L283,239.89,274.4,233l-8.73-9.13-8.18-11.5-7-13.88L245,182.42l-3.45-17.9-1.26-19.15,1-19.71,3.24-19.48,5.29-18.53,7-16.94,8.34-14.88,9.07-12.56,9.14-10.17,24-20-.29-.11-2.56.92-11.83,6.71-8.15,6.16-8.73,8.33-8.58,10.67L259.49,58.8,253,74.14l-4.66,17.33-2.59,18.79-.35,19.6,1.92,19.65,4.09,18.94,6,17.55,7.62,15.63L273.8,215,283,226l17,15.08,12.41,8.34-.18,0-.83-.39L302,243.46l-15.93-13-8.76-9.85L269,208.36l-7.31-14.58-5.77-16.69-3.86-18.35-1.71-19.4.57-19.72,2.8-19.27,4.91-18.1,6.72-16.35,8.12-14.19,9-11.82,9.19-9.44,8.68-7.18,16.36-10.08.72-.24-.1.11-6.56,4.39-14.49,11.6-8.67,9-8.67,11.4-8,13.79-6.74,16-5.05,17.83-3,19.12-.8,19.69,1.48,19.52L260.45,174l5.68,17,7.34,15L282,218.65l9.14,10.25,9.07,7.95,15.08,9.71,6.95,2.86-16.11-13.51-17.08-18.82-8.48-13L273,188.86,266.9,171.6l-4.26-18.74-2.14-19.58.11-19.67,2.37-19L267.49,77l6.39-15.71,7.88-13.48,8.86-11.08,9.2-8.73,8.84-6.52L316.42,17l9.79-4,1.16.33-1.53,1.87L315.6,24.11,299.29,41.34l-8.72,12.14L282.39,68l-7,16.61-5.41,18.3-3.43,19.37L265.26,142l1,19.31,3.25,18.16,5.31,16.42,7,14.28,8.34,11.91,9.07,9.53,9.14,7.27,8.5,5.2,12.32,5.08,2.74.19.07-1.33-22.58-23.32-8.72-11.31-8.59-13.7-7.78-15.91L278,166,273.3,146.9l-2.58-19.69-.34-19.53L272.31,89,276.42,72l6-15,7.63-12.75,8.71-10.35,9.18-8,9-5.89,14.45-6.24,4.25-.72,1.68.8-4.58,6.44L319.47,34.33,302.25,57.69l-8.34,15.18-7.3,17.18-5.77,18.7L277,128.31,275.3,148l.58,19,2.82,17.68,4.92,15.8,6.73,13.56,8.12,11.18,9,8.82,9.18,6.6,8.68,4.62,7.47,2.84,5.6,1.24,3.25-.27.61-1.81-2.07-3.46-27.7-34.41L303.8,195l-8-16.54-6.74-18.24-5-19.34-3-19.73-.79-19.33,1.48-18.21,3.69-16.51,5.69-14.36,7.34-12L307,31.11l9.14-7.35,9.07-5.28,8.28-3.43,6.79-1.78L345,13l2.21,1.27-.47,2.87-24,31.36-8.75,13.6L305.47,78l-7.55,17.71-6.1,19-4.25,19.68-2.14,19.55.13,18.68,2.38,17.16,4.52,15.14,6.41,12.83,7.88,10.45,8.86,8.11,9.2,6,8.84,4,7.75,2.33,6,.78,3.75-.74,1.14-2.3-5.61-9.93L332.77,218l-17.31-27.87L307.29,173l-7-18.65-5.4-19.54-3.43-19.68L290.2,96.08l1-17.75,3.26-15.88,5.31-13.66,7.06-11.27,8.34-8.91,9.08-6.68,9.14-4.69,8.49-2.91,7.13-1.3,5.16.21L356.94,15l.06,3.39-2.59,5.24L325.65,66.76l-8.58,16.46-7.78,18.18-6.43,19.31-4.64,19.73-2.56,19.36-.33,18.27,1.94,16.58,4.12,14.45,6.05,12.11,7.64,9.71,8.71,7.44,9.18,5.35,9,3.5,8,1.84,6.41.31,4.22-1.21,1.68-2.8-1-4.57-9.41-15.33-16-24.63-17.08-33.4-7.3-19-5.75-19.67-3.84-19.57-1.68-18.73.59-17.22L303.66,58l4.93-12.94,6.74-10.53,8.13-8.21,9-6,9.18-4.11,8.68-2.4,7.45-.83,5.6.67,3.23,2.24.6,3.94-2.08,5.84-4.54,8L346,56.6l-17.33,32-8,18.61L314,126.77l-5,19.69-3,19.1-.78,17.81,1.5,16,3.7,13.75,5.69,11.36,7.36,9,8.54,6.77,9.15,4.76,9.06,3,8.27,1.36,6.78-.16,4.7-1.68,2.2-3.33-.49-5.16-3.11-7.21-29.71-52-8.46-18.12-7.55-19.29-6.09-19.72-4.24-19.39L310.37,85l.14-16.66,2.4-14.54,4.53-12.2,6.41-9.81,7.89-7.52,8.86-5.43,9.2-3.57,8.84-1.9,7.75-.37,6,1.15,3.73,2.74,1.13,4.5-1.56,6.47L365.4,47.55,349.07,76.64l-16.89,36.54-7,19.66-5.39,19.59-3.42,18.77-1.22,17.29,1.05,15.31,3.28,13,5.32,10.63,7.06,8.29,8.35,6.13,9.08,4.19,9.14,2.46,8.48.89,7.13-.62,5.14-2.17,2.72-3.87,0-5.76-2.6-7.89-5-10.21-15.06-27.51L342,155.86l-7.77-19.49-6.42-19.71-4.63-19.13-2.55-17.87-.31-16,2-13.83,4.13-11.46,6.06-9.09,7.64-6.86,8.72-4.83,9.19-3,9-1.42,8,.09,6.4,1.63,4.21,3.26,1.66,5.08-1,7.13-3.61,9.38L352,99.93l-15.62,39-5.74,19.42-3.82,18.38-1.67,16.72.6,14.64,2.85,12.29,4.94,9.9,6.74,7.6,8.14,5.51,9,3.64,9.18,2,8.67.42,7.44-1.09,5.58-2.67,3.23-4.43.58-6.39-2.1-8.59L378.9,202l-16.65-33.1L345.61,130.3l-6.72-19.61-5-18.82-3-17.36-.77-15.39L331.65,46l3.71-10.72,5.7-8.39,7.37-6.21L357,16.42l9.14-2.52,9.07-1,8.26.56,6.77,2.11,4.68,3.79,2.18,5.69-.5,7.8L393.46,43,388,55.52,372.48,87.25l-17.22,38-13.62,38.89L337.41,182l-2.1,16.12.15,13.93,2.41,11.55,4.54,9.18,6.42,6.94,7.9,4.91,8.87,3.1,9.2,1.49,8.82,0,7.75-1.56,6-3.19,3.72-5,1.11-7.05-1.57-9.29-4.1-11.68L365.25,144l-15.18-39.16-5.38-18.43-3.4-16.81-1.21-14.72,1.06-12.38,3.29-10,5.34-7.7,7.07-5.58,8.35-3.71,9.08-2,9.14-.48,8.48,1,7.11,2.6L404.14,21l2.7,6.31,0,8.5L404.25,46.6,392.33,75.34l-16.9,36.32-16.34,39.25-6.41,18.87-4.62,17.42-2.54,15.48-.3,13.21,2,10.82,4.14,8.47,6.08,6.29,7.64,4.33,8.72,2.6,9.19,1,9-.51,8-2,6.39-3.73,4.2-5.61,1.64-7.72-1.05-10-3.62-12.42-5.84-14.74-33-74.44-13-37.2-3.82-16.2-1.65-14,.61-11.64,2.86-9.27,5-7,6.76-5,8.14-3.17,9-1.55,9.18,0,8.67,1.5,7.43,3.13,5.57,4.93,3.21,7,.56,9.21-2.11,11.58-4.56,14-31.9,73L363.8,175.31l-5,16.88-3,14.8-.75,12.48,1.52,10.09,3.73,7.78L366,243l7.37,3.78,8.56,2.09,9.15.54,9.06-1,8.25-2.54,6.76-4.28,4.67-6.23L422,227l-.52-10.75-3.14-13.15-12.65-32.79-33.09-77-6.08-17.5-4.21-15.56-2.1-13.3L360.41,36l2.42-8.56,4.55-6.37,6.43-4.41L381.72,14,390.59,13l9.2.44,8.82,2,7.74,3.66,6,5.53L426,32.21l1.09,9.93-1.59,12.32-4.11,14.65-6.22,16.75L382,162.64,369.61,197l-3.39,14.11L365,222.82l1.08,9.36,3.3,7.11,5.34,5.06,7.08,3.24,8.37,1.61,9.08.08,9.13-1.44,8.47-3.06,7.11-4.86L429.1,233l2.69-9.11V212.44l-2.63-13.86-5-16.07-32.4-76.23L377.59,70.8,373,55.9l-2.53-12.57-.29-10.18,2-7.86,4.15-5.75,6.09-3.84L390,13.54l8.73-.6,9.18.91,9,2.48,8,4.21,6.38,6.15L435.48,35l1.63,10.66-1.07,13L432.4,74.05l-13.35,36.1-32.83,75.76-9.52,29-1.64,11,.62,8.65,2.87,6.45,5,4.48,6.76,2.72,8.15,1.13,9-.38,9.18-1.92,8.66-3.59,7.43-5.46,5.56-7.54,3.19-9.83.55-12.23-2.13-14.57-4.57-16.67-6.59-18.34L412,119.73,395.41,82.34,383.72,51.79l-3-11.84L380,30.5l1.54-7.19,3.73-5.14L391,14.86l7.38-1.66,8.56-.14,9.15,1.38,9.06,3,8.25,4.78,6.75,6.8,4.65,9L447,49.42l-.54,13.78-3.15,16L437.84,97l-15.57,38.8-17.22,38.11-13.58,32-4.21,12.66-2.08,10.27.17,8,2.44,5.82,4.57,3.91,6.44,2.22,7.91.66,8.87-.84,9.2-2.42L433.6,242l7.73-6.07,6-8.23L451,217.16l1.08-13L450.47,189l-4.13-17.25-14-38.31-32.47-72L391.15,36.8,390,28.06l1.09-6.54L394.37,17l5.35-2.79L406.81,13l8.37.33,9.08,1.86,9.14,3.52,8.46,5.38,7.1,7.45,5.11,9.75,2.67,12.13V67.89l-2.65,16.59-5,18.29-6.93,19.37-16.91,39-16.33,34.6-11,26.22-2.52,9.55-.27,7.27,2,5.21,4.16,3.38,6.1,1.73,7.66.19,8.73-1.31,9.19-2.93,8.95-4.71,8-6.71,6.36-8.93,4.18-11.3,1.61-13.68L461,183.84l-3.65-17.76L451.46,147l-16-39.23-30-63.55-3.79-10.37-1.63-8,.64-5.9,2.89-4,5-2.28,6.78-.73,8.15.79,9,2.36,9.18,4.06,8.65,6,7.42,8.14,5.54,10.47,3.18,12.86.54,15.17L464.79,90l-4.6,18.69L453.6,128.2l-8,19.68-32,66.1-7.92,20-.72,6.62,1.55,4.63,3.74,2.85,5.74,1.25,7.39-.27,8.56-1.8,9.15-3.45,9.06-5.3,8.24-7.37,6.74-9.65,4.64-12,2.14-14.39-.55-16.52-3.16-18.23L462.75,141l-7.24-19.73L438.4,83.7,412.18,31.15l-2.06-7.36.18-5.29,2.45-3.44,4.58-1.79,6.45-.25,7.92,1.25,8.88,2.86,9.2,4.64,8.81,6.63,7.72,8.84,6,11.21L476,62,477,77.86l-1.62,17.7-4.13,19L465,134.27l-16.37,38.24-32.56,63.75-1.17,6,1.1,4.06,3.32,2.35,5.37.78,7.09-.73,8.38-2.29,9.09-4,9.13-5.91,8.46-8.06,7.08-10.37L479,205.3l2.66-15.08,0-17.1L479,154.47l-5-19.54L467,115.25l-8.19-19.07-17.3-33.65-14.13-25L420.32,22l-.26-4.7,2-2.92L426.24,13l6.11.21L440,15l8.73,3.38,9.19,5.22,8.95,7.29,8,9.56,6.36,11.94,4.16,14.3L487,83.12l-1.09,18.17-3.67,19.32-5.87,19.72-7.51,19.36L451.6,194.56l-25.05,43.76-1.62,5.37.66,3.51,2.89,1.85,5,.31,6.78-1.2,8.16-2.79,9-4.56,9.18-6.55,8.65-8.75,7.41-11.11,5.53-13.5,3.17-15.74.51-17.64-2.15-19-4.61-19.67-6.6-19.57-8-18.74-8.68-17.23-31.2-53-.71-4.13,1.56-2.4,3.76-.84,5.75.67,7.4,2.22L457,19.76l9.15,5.83,9,8,8.24,10.28,6.72,12.68,4.63,15,2.13,17-.57,18.6-3.18,19.52-5.47,19.69-7.24,19.11-8.36,17.81L454.85,213,441.29,233.4,435.05,245l.2,3,2.46,1.38,4.59-.15,6.46-1.68,7.93-3.31,8.88-5.15,9.2-7.2,8.81-9.47,7.71-11.85,5.95-14.21,3.66-16.37L502,161.8l-1.63-19.28-4.15-19.72-6.26-19.39-7.77-18.34L464.82,53.85,441,18.85l-1.16-3.58L441,13.36,444.3,13l5.38,1.14,7.1,2.73,8.38,4.49,9.09,6.46,9.13,8.67,8.45,11,7.08,13.41L504,76.55l2.65,17.57,0,18.95-2.68,19.66-5.05,19.59-6.94,18.78-8.2,17.3L475,203.72,458.7,227.4l-13.44,18.65-.25,2.47,2,.9,4.18-.61,13.8-6,8.74-5.75,9.18-7.88L491.88,219l8-12.59,6.35-14.91,4.14-16.95L511.94,156l-1.11-19.49-3.68-19.71-5.88-19.14-7.53-17.88-8.5-16L468.19,38.37l-12.95-16-5.37-7.9.67-1.43,2.91.09L465.23,18l8.17,5.07,9,7.12,9.18,9.38,8.65,11.75,7.4,14.12,5.52,16.29,3.15,18.06.5,19.25-2.17,19.72L510,158.21,503.4,176.6l-8,16.74-17.34,26.95L455.55,247l-.7,2,1.58.43,9.53-3.74,16-10.8,9.15-8.57,9.05-10.93L508.37,202l6.72-15.58,4.62-17.5,2.1-18.91-.58-19.64L518,110.8,512.56,92,505.31,74.6l-8.37-15.4-8.75-13.13L472.24,26.93,460,13.91l.21-1,7.08,2.65,14.4,9.46,8.89,7.79L499.76,43l8.81,12.49,7.7,14.82,5.94,16.89,3.65,18.49,1,19.47-1.65,19.71L521.08,164l-6.27,17.94L507,198.07l-8.6,14-16.86,20.75-16.78,16.48,4.48-1.58,12.5-8.18,17.47-16.31,9.13-11.67,8.45-14,7.07-16.21,5.07-18,2.62-19.21,0-19.72-2.7-19.44-5.06-18.45-6.95-16.81-8.2-14.73-17.3-22.4L469.79,13l.17,0,2,1,10.32,6.94L498.74,35.7l9.19,10.83,8.94,13.23,8,15.49,6.33,17.44,4.13,18.86,1.57,19.63-1.13,19.63-3.69,18.86-5.89,17.44-7.53,15.49-8.5,13.23-8.75,10.83-15.55,14.78-11.07,8,.72-.52,7.93-5.75,15-13.31,9-10,9.17-12.4,8.64-14.73,7.4-16.81,5.5-18.45L541.25,138l.49-19.72-2.19-19.21-4.63-18L528.3,64.88l-8-14L511.6,39.18,495,22.87l-14.53-9.73-.68,0,18.55,16.48,17.73,20.75,9,14,8.23,16.13,6.7,17.94,4.61,19.18,2.09,19.71-.6,19.47L543,175.21l-5.5,16.89-7.26,14.82-8.36,12.49-8.76,10.1-8.44,7.79-13.52,9.46-6.2,2.65,13.81-14,16.83-19.14,9.2-13.13,8.8-15.4,7.69-17.37,5.93-18.83L550.81,132l1-19.64L550.17,93.4,546,75.9l-6.27-15.58L531.93,47l-8.61-10.93-8.71-8.57-15.1-10.8L490.86,13l-1.13.43,1.14,2,24.27,26.7L533.36,69l8.45,16.74,7.05,18.39,5.06,19.42,2.61,19.72-.06,19.25-2.71,18.06-5.08,16.29-7,14.12-8.2,11.76-8.74,9.37-8.55,7.12-7.73,5.07-10.91,4.86-2.46.09-.23-1.43,6.26-7.9L515,224l17.94-25.33,8.94-16,8-17.88,6.32-19.14,4.12-19.7,1.55-19.5-1.14-18.55-3.7-17L551.07,56l-7.54-12.59L535,33.2l-8.75-7.87L518,19.57l-12.91-6-3.74-.61-1.58.9,3.62,6.67L515.2,35l17.19,23.68L541.57,74l8.63,17.3L557.59,110l5.49,19.6,3.12,19.65.48,19-2.2,17.57-4.65,15.66-6.63,13.41-8,11-8.68,8.66L527.85,241l-7.94,4.49-6.66,2.73-4.94,1.14-2.89-.38-.68-1.91,1.6-3.58,25.58-35,18.2-31.22L558.34,159l6.7-19.39,4.59-19.72,2.08-19.28-.62-18.12-3.22-16.37-5.5-14.21L555.1,40l-8.37-9.47L538,23.34l-8.44-5.15L522,14.88l-6-1.68-4.15-.14-2,1.37.24,3L517.22,29l14.44,20.39,18.09,29.74,8.8,17.81L566.23,116l5.92,19.69,3.62,19.52,1,18.6-1.68,17-4.19,15-6.28,12.68-7.8,10.28-8.61,8-8.71,5.83-8.13,3.93-7,2.22-5.31.67-3.32-.84-1.12-2.4,1.15-4.13L519.2,236l12.54-18.77L549.23,189l9.13-17.23,8.43-18.74,7.05-19.57,5-19.67,2.59-19-.07-17.64-2.73-15.74L573.59,48l-7-11.11-8.21-8.75-8.73-6.55L541.12,17,533.4,14.2,527.06,13l-4.55.31-2.45,1.85-.21,3.51L521.91,24,548.72,67.8l18.13,34.87,8,19.36,6.31,19.73,4.11,19.31,1.54,18.17-1.16,16.45L581.89,210,576,221.93l-7.55,9.56-8.51,7.29L551.17,244l-8.29,3.38-7.23,1.74-5.66.21L526.26,248l-1.57-2.92.7-4.7,8-15.62,15-24.95,18.18-33.65,8.63-19.07,7.37-19.68,5.49-19.54,3.1-18.64.46-17.11L589.4,57.06l-4.66-12.77L578.1,33.92l-8-8.06L561.39,20l-8.65-4-7.93-2.29-6.65-.73-4.93.78-2.88,2.35-.66,4.06,1.61,6,3.81,8.13,31,55.62,17.25,38.24L590,147.77l4.58,19,2.06,17.7L596,200.32l-3.24,13.59-5.52,11.21L580,234l-8.38,6.63-8.76,4.64-8.43,2.86L547,249.35l-6-.26-4.14-1.79-2-3.44.25-5.29,2.51-7.36,28-52.55,18-37.56,7.67-19.73L597.12,102l3.6-18.23,1-16.52L600,52.89l-4.21-12-6.29-9.65-7.8-7.37-8.62-5.3-8.71-3.45-8.12-1.8L549.32,13,544,14.26l-3.31,2.85-1.11,4.63,1.17,6.62,8.81,20,33.76,66.1,8.43,19.68,7,19.56,5,18.69,2.58,17.17-.09,15.17-2.74,12.86-5.1,10.47-7,8.15-8.21,6-8.74,4.06L566,248.64l-7.72.79-6.33-.72-4.53-2.29-2.45-4-.19-5.9,2.07-8,4.23-10.37,31.81-63.55,16.88-39.23,6.3-19.07,4.1-17.76,1.52-15.91-1.17-13.68-3.74-11.3-5.92-8.93L593.32,22l-8.51-4.71-8.74-2.92L567.78,13l-7.22.19L554.9,15l-3.72,3.38-1.55,5.21.72,7.27,2.95,9.55,29.08,60.82,17.8,39,7.36,19.37L613,177.88l3.1,16.59.44,14.48-2.23,12.14-4.67,9.74L603,238.28l-8,5.38-8.69,3.52L577.64,249l-7.93.33-6.64-1.19-4.92-2.79-2.87-4.55-.65-6.54,1.63-8.74L565.88,201l34.23-72L615,90.66l4.57-17.25,2.05-15.25L621,45.21l-3.25-10.57-5.53-8.23-7.29-6.07-8.38-4.14-8.75-2.42-8.43-.84-7.48.66-6,2.22-4.12,3.91-2,5.82.27,8,2.52,10.27,4.65,12.66,14.47,32,18.1,38.11,16.45,38.8,5.89,17.83,3.6,16,1,13.78-1.71,11.39-4.21,9-6.31,6.8-7.81,4.78-8.62,3-8.7,1.38-8.12-.14-6.94-1.66-5.29-3.31-3.29-5.14-1.09-7.19,1.17-9.45,3.4-11.84L581.71,180l17.51-37.39,17.54-39.12,7-18.34,5-16.67,2.57-14.57-.11-12.23-2.75-9.83-5.11-7.54-7-5.46-8.22-3.59-8.74-1.92L590.91,13l-7.71,1.13-6.32,2.72-4.52,4.48-2.43,6.45-.19,8.65,2.09,11,10.41,29,34.59,75.76,14.23,36.1,4.08,15.33,1.51,13.05-1.19,10.66-3.74,8.32-5.94,6.15L618.22,246l-8.52,2.48-8.74.91-8.29-.6-7.21-2.16-5.64-3.84-3.71-5.75-1.54-7.86L575.3,219l3-12.57,5.05-14.9,15-35.48,34.16-76.23L638,63.78l3.08-13.86.42-11.49-2.24-9.11-4.68-6.88-6.66-4.86-8-3.06-8.7-1.44-8.64.08-7.92,1.61L588,18l-4.9,5.06-2.86,7.11-.63,9.36,1.63,11.74,3.84,14.11L598.3,99.72l35,76.78L640,193.25l4.55,14.65,2,12.32-.65,9.93-3.27,7.63-5.54,5.53L629.79,247l-8.38,2-8.76.44-8.43-1.07-7.47-2.65-6-4.41-4.12-6.37-2-8.56.28-10.91,2.54-13.3,11.17-33.06,34.85-77,13.54-32.79,3.58-13.15,1-10.75L649.87,27l-4.23-6.24-6.32-4.28-7.81-2.54-8.62-1-8.71.54-8.11,2.09-6.93,3.78L593.86,25l-3.28,7.78L589.5,42.89l1.19,12.48,3.41,14.8,5.44,16.88,15.57,38,33.66,73,5,13.95,2.55,11.59-.12,9.2-2.77,7-5.13,4.93-7,3.13-8.23,1.5-8.74,0-8.54-1.55-7.71-3.17-6.31-5-4.51-7-2.42-9.27-.17-11.64,2.1-14,4.25-16.2,13.9-37.2,18-39.17,16.86-35.27L656,55l4.06-12.42,1.49-10-1.2-7.72-3.76-5.61-5.94-3.73-7.58-2L634.6,13l-8.75,1-8.28,2.59-7.2,4.33-5.64,6.29L601,35.65l-1.53,10.82.74,13.21,3,15.48,5.06,17.42,6.85,18.87,17.23,39.25L650.15,187,663,215.76,666,226.6l.41,8.5-2.26,6.31-4.69,4.36-6.67,2.61-8,1-8.7-.48-8.63-2-7.92-3.71-6.63-5.58L608,229.9l-2.85-10-.62-12.38,1.65-14.72L610,176l5.83-18.44,16-39.16,33-67.49,4.54-11.68,2-9.29-.67-7-3.28-5L662,14.7l-7.3-1.56-8.39,0-8.76,1.49-8.42,3.1-7.46,4.91-6,6.94-4.1,9.18-2,11.55.29,13.93,2.55,16.12,4.67,17.94,14.5,38.88,18.1,38,16.44,31.73,9.43,22.62.94,7.8L674.79,243l-4.24,3.79-6.33,2.11-7.82.56-8.62-.95-8.71-2.52-8.1-4.26L624,235.47l-5.26-8.39-3.27-10.72-1.07-13.12,1.2-15.39,3.43-17.36,5.45-18.82,7.16-19.61L649.21,93.5l17.53-33.1,12-24.26,2.54-8.59-.14-6.39-2.78-4.43-5.14-2.67-7-1.09-8.22.42-8.74,2L640.7,19,633,24.51l-6.31,7.6L622.2,42,619.8,54.3l-.16,14.64,2.11,16.72L626,104.05l6.19,19.41,16.5,39L681,222.71l4,9.38,1.48,7.13-1.22,5.09-3.77,3.25-6,1.63-7.58.09-8.52-1.42-8.74-3L642.47,240l-7.2-6.86L629.65,224,626,212.58l-1.51-13.83.75-16.05,3-17.87,5.07-19.13,6.86-19.7,8.21-19.5L666.53,71l16-27.52L691,25.36l.4-5.76-2.28-3.87-4.7-2.17-6.68-.62-8.05.89L661,16.29l-8.64,4.19-7.91,6.13-6.62,8.29-4.88,10.63-2.84,13-.61,15.31,1.67,17.29L635,109.93l5.84,19.59,7.46,19.66,17.77,36.54,28.38,48.8,2,6.47-.68,4.5-3.29,2.74-5.57,1.15-7.31-.37-8.39-1.9-8.76-3.57L654,238.11l-7.45-7.52-6-9.81-4.09-12.2-2-14.54.31-16.65,2.56-18.33,4.68-19.39L648.62,120l8-19.29,8.91-18.12L697,30.59l3.55-7.21.93-5.16-1.76-3.33-4.25-1.68-6.34-.16-7.82,1.36-8.63,3L664,22.15l-8.11,6.77-6.91,9L643.7,49.28,640.44,63l-1.06,16L640.6,96.8,644,115.9l5.47,19.69,7.17,19.52,8.42,18.61,18.22,32,15.41,23,7.51,13.82-.16,3.94-2.79,2.24-5.15.67-7-.83-8.23-2.4-8.74-4.11L665.6,236l-7.69-8.21-6.3-10.53-4.49-12.93-2.39-15.23-.15-17.22,2.13-18.73L651,133.61l6.2-19.67,7.74-19,18-33.4,27.14-40L711.48,17l-1.23-2.8L706.46,13l-6,.31-7.58,1.84-8.53,3.5L675.64,24l-8.27,7.44-7.19,9.71-5.62,12.11-3.67,14.45-1.5,16.58.76,18.27,3,19.36,5.09,19.73L665.11,161l8.22,18.18,9,16.46L715.91,244l.38,3.39L714,249.12l-4.72.21-6.7-1.3-8-2.91-8.7-4.69-8.63-6.68-7.91-8.91-6.61-11.27-4.87-13.66L655,184l-.6-17.74,1.68-19.07L660,127.54,665.79,108l7.47-18.65,8.62-17.12,18.19-27.87L714.88,25.9l6.5-9.93-.7-2.3-3.31-.74-5.57.78L704.48,16l-8.4,4.05-8.75,6-8.42,8.11-7.45,10.45-6,12.83L661.43,72.6l-1.95,17.15.32,18.68L662.37,128l4.69,19.68,6.55,19,8,17.71,8.91,15.83,9.2,13.61,25.78,31.36.92,2.86-1.77,1.27-4.27-.25L714,247.31l-7.83-3.43-8.63-5.28-8.7-7.35-8.1-9.62-6.9-12-5.25-14.36-3.24-16.5-1-18.22,1.23-19.33L669,121.48l5.47-19.34,7.18-18.24,8.44-16.54,9.1-14.4,17.52-21.71,14.46-16.16L731,13.28,728.2,13,723,14.25l-7,2.84-8.24,4.62L699,28.31l-8.54,8.82-7.68,11.18-6.29,13.56-4.47,15.8-2.38,17.68-.14,19,2.14,19.67L676,153.61l6.2,18.7,7.74,17.18,8.78,15.18L716.79,228l19.63,20.6-1.25.8-3.8-.72-13.57-6.24-8.53-5.89-8.74-8-8.27-10.35-7.18-12.75-5.6-15-3.66-17.08-1.49-18.63.78-19.54,3-19.69,5.09-19.07,6.88-17.78,8.22-15.91,9-13.7,9.16-11.31L741.23,13l-2.3.19-11.44,5.08-8,5.2-8.7,7.27-8.63,9.53-7.9,11.91-6.6,14.28-4.86,16.42-2.81,18.16-.59,19.31L681,140.11l3.88,19.37,5.85,18.3,7.48,16.61,8.62,14.49L716,221l17.2,17.23L746.32,249l-.71.33-8.91-4L721,234.35l-8.76-8.73-8.41-11.08-7.44-13.48-6-15.71-4.07-17.62-1.93-19,.33-19.67,2.58-19.58L692,90.76l6.55-17.26,8-15.26,8.92-13,9.19-10.58,8.77-8.24,17.88-13.51-6.07,2.86-14.2,9.72-8.63,7.94-8.7,10.25-8.09,12.66-6.89,15-5.24,17-3.23,18.58-1,19.52,1.24,19.69L694,165.25l5.48,17.83,7.19,16,8.44,13.79,9.11,11.4,9.11,9,15.37,11.6,7.71,4.52-.44-.26-2.82-1.66-12.21-8.42-8.24-7.18-8.75-9.44-8.53-11.82-7.68-14.19-6.28-16.35L697,162l-2.37-19.27L694.48,123l2.15-19.4,4.3-18.35,6.21-16.69L714.89,54l8.79-12.23,9.19-9.85,16.82-13L761.36,13,760.1,14.1l-9.8,7.18L734.17,36.36l-8.75,11-8.26,13.38L710,76.36l-5.6,17.55-3.65,18.94-1.47,19.65.79,19.6,3,18.8,5.11,17.32,6.88,15.34,8.23,13.07,9,10.67,9.17,8.33,8.59,6.16,12.71,6.71,3,.92.35-.6-21.84-19.56-8.7-10.17L727,206.53l-7.89-14.88-6.59-16.94-4.85-18.53-2.8-19.48L704.3,117,706,97.84l3.89-17.9,5.86-16.07L723.24,50l8.62-11.5L741,29.36l9-6.89,14.78-7.93,4.48-1.45,2,.07L767.2,18,754.27,30.13,737.11,51.21,728.7,65.3l-7.43,16.27-5.94,18-4.06,19.24-1.91,19.72L709.7,158l2.6,18.4L717,193.16l6.56,14.67,8,12.33,8.92,9.94,9.19,7.64,8.77,5.54,7.62,3.67,5.82,2,3.5.45.89-1.07-1.8-2.64-10.66-10.76-16.48-19.44-8.7-13.29-8.09-15.55-6.89-17.49-5.22-18.89-3.22-19.64-1-19.62,1.25-18.83,3.47-17.39,5.5-15.43,7.2-13.16,8.44-10.76L749.18,27l9.11-6.25,8.39-4.29,7-2.55,4.94-1,2.48.53-.2,2.09L757.56,42.83l-8.75,12.46-8.53,14.79L732.61,87l-6.27,18.48-4.45,19.46-2.36,19.71-.1,19.19,2.16,18,4.31,16.16,6.22,14,7.76,11.6,8.79,9.21,9.19,7,8.91,4.94,7.9,3.14,6.22,1.51,4,0,1.41-1.53-5.1-8.14-13.61-16.27-17.27-25.64-8.26-16.19-7.17-18-5.58-19.2-3.64-19.72-1.46-19.45.8-18.46,3-16.83,5.11-14.76,6.9-12.42,8.23-10,9-7.73,9.17-5.62,8.59-3.74,7.3-2.06,5.39-.51,3,1,.33,2.58-2.33,4.32L777.29,35.6l-16.77,24L751.9,75.06,744,92.48l-6.58,18.86L732.59,131l-2.79,19.63-.56,18.88L731,186.93l3.9,15.51,5.87,13.25,7.5,10.86,8.62,8.51,9.17,6.32,9,4.37,8.16,2.62,6.6,1,4.47-.47,1.94-2-.74-3.7L770.76,207.6,762,192.9l-8.4-16.8-7.43-18.42-5.93-19.44-4-19.72L734.29,99.3l.36-18,2.61-16.23L742,51l6.57-11.69,8-9.31,8.92-7.06,9.2-5,8.76-3.2,7.61-1.57,5.8-.05,3.5,1.47.87,3.1-1.82,4.9L795.1,29.5,780.87,50.2l-17.33,30-8.08,17.92-6.88,19.17L743.37,137l-3.21,19.47-1,18.51,1.27,16.91,3.48,14.84,5.51,12.52,7.2,10.13,8.45,7.81,9.12,5.7,9.1,3.81,8.38,2.12,7,.57,4.93-.95L806,246l-.22-4.25-2.85-6.2L790.7,216.43l-17-28.49-8.53-17.35-7.66-18.81-6.27-19.61-4.44-19.64-2.34-18.92-.1-17.53,2.18-15.6,4.32-13.34,6.24-11,7.76-8.6,8.79-6.4,9.2-4.44,8.9-2.68,7.89-1.1,6.21.42,4,2,1.4,3.62-1.3,5.5L784,68.85l-17,35.09-7.16,19.41-5.58,19.72-3.62,19.26-1.45,18.07.82,16.32,3,14.15,5.13,11.78,6.9,9.4,8.25,7.14,9,5.09,9.16,3.27,8.59,1.63,7.29.11,5.37-1.42,3-3L816,240l-2.35-6.84-4.77-9.08-14.8-25.27-17.33-33.89-7.88-19.13-6.57-19.7-4.83-19.51L754.73,88l-.54-17,1.73-14.93,3.91-12.61,5.88-10.21,7.5-7.91,8.64-5.78L791,15.75l9-2.18,8.15-.63,6.59.88,4.46,2.45,1.93,4.18-.76,6.12L817,34.85,786.9,91.06l-15.82,38.35-5.92,19.66-4,19-1.89,17.59.37,15.68,2.62,13.43,4.74,11,6.58,8.68,8,6.49,8.93,4.51,9.19,2.75,8.76,1.15L816,249l5.79-1.9,3.48-3.56.86-5.42-1.83-7.51-27.21-53.15-16.77-37.7-6.87-19.72-5.21-19.29-3.19-18.14-1-16.39L765.37,52l3.5-11.87,5.52-9.49,7.21-7.23,8.45-5.17,9.12-3.33,9.1-1.7,8.38-.16,7,1.35,4.92,3L831,22.12l-.23,6.76-2.87,9-5.21,11.35L807.34,78.9l-17.27,36.89-7.65,19.69L776.17,155l-4.44,18.61-2.33,17-.08,15,2.19,12.7,4.33,10.31,6.25,8,7.77,5.86,8.8,3.94,9.19,2.25,8.9.69,7.88-.83,6.2-2.39,4-4.1,1.39-6-1.31-8.19L831,217.35,800.1,153.29l-15.4-39.24-5.56-19-3.62-17.65-1.43-15.77.83-13.52L778,37l5.13-8.78L790,21.61,798.29,17l9-2.81L816.48,13l8.58.3,7.29,1.83,5.36,3.5,3,5.34.3,7.42-2.36,9.7L827.09,67.62l-16.78,34.84-16.5,39.08-6.56,19.32-4.82,18.19-2.76,16.47-.54,14.32,1.74,12,3.93,9.59,5.89,7.31L798.2,244l8.64,3.41,9.17,1.75,9,.22,8.15-1.29,6.58-2.9,4.44-4.67,1.91-6.68-.77-8.89L842,213.64,836.32,200l-32.93-72.34-13.32-38.2-4-17.13-1.88-15.1.38-12.8L787.18,34l4.75-8.08L798.52,20l8-4,8.93-2.31,9.19-.75,8.75.77L841,16l5.78,4,3.47,6,.83,8.1-1.84,10.43-4.33,12.83-31.6,70.49L798.39,166.6l-5.19,17.71L790,200.16l-1,13.62L790.33,225l3.51,8.87,5.52,6.65,7.23,4.65,8.46,2.88,9.11,1.28,9.11-.24,8.37-1.77,6.94-3.43,4.9-5.26,2.44-7.34-.25-9.61-2.88-12L840.5,178.85l-17-37.53-16.17-39.08L801.08,84l-4.42-16.55L794.34,53,794.27,41l2.2-9.67,4.34-7.4,6.26-5.32,7.78-3.47,8.8-1.82,9.19-.28,8.9,1.23,7.88,2.83,6.18,4.61,4,6.59,1.37,8.8-1.32,11.17-3.87,13.55-6,15.79L816.75,153.5l-12.7,35.9-3.6,15.19L799,217.48l.84,10.5,3.08,8.17,5.15,6,6.92,4.09,8.26,2.37,9,.81,9.16-.71,8.57-2.26,7.27-4,5.35-5.88,3-8,.29-10.34-2.38-12.73-4.79-15-14.83-35.7-17.33-39.22L812.15,78.71l-4.8-15.93L804.6,49.07l-.52-11.32,1.75-9,3.94-6.74,5.9-4.73,7.52-2.94L831.83,13l9.17.18,9,1.71,8.13,3.36,6.57,5.19,4.43,7.25,1.9,9.52-.79,11.9-3.39,14.26-13,34.57-17.18,39-15.8,37.68L811,208.81,809.11,221l.39,9.77,2.65,7.48,4.76,5.4,6.6,3.54,8,1.88,8.93.34,9.2-1.17,8.74-2.77L866,240.9l5.77-6.51,3.45-8.71L876,214.6l-1.86-13.46-4.34-15.7-6.41-17.61-33.27-77-12-32.54-3.17-13-1-10.59,1.3-8.26,3.52-6.09,5.54-4.16,7.23-2.44,8.47-.86,9.12.64,9.1,2.2,8.36,3.9,6.93,5.8,4.89,7.93,2.42,10.24-.26,12.64-2.89,14.95-5.24,17-15.34,38.09L826,199l-4.41,13.8-2.31,11.42,0,9,2.21,6.82,4.36,4.81,6.26,3,7.79,1.39,8.8-.12,9.2-1.65,8.89-3.28,7.87-5.12,6.18-7.17,3.94-9.42,1.35-11.81-1.34-14.17-3.88-16.34-13.68-37.36L834.51,68.67l-9.13-26.84L824,32l.85-7.57,3.1-5.48,5.16-3.6,6.93-2,8.26-.39,9,1.11,9.16,2.7L875,21.25l7.26,6.43,5.34,8.62,2.93,11,.27,13.37-2.39,15.62-4.8,17.54-6.76,18.94-33.28,75.37-11.34,28.44-2.74,10.68-.51,8.35,1.77,6.17,4,4.23,5.91,2.5,7.53.93,8.65-.59L866,246.7l9-3.83,8.12-5.72,6.56-7.84,4.42-10.15L896,206.61l-.8-14.87-3.41-16.93-5.65-18.52-15.8-39.19-30.43-67-4-11.51L834,29.41l.41-6.91,2.66-4.87,4.77-3.08,6.61-1.46,8,.06,8.94,1.59L874.66,18l8.74,5L891,30.08l5.76,9.34,3.43,11.71L901,65.22l-1.87,16.25-4.36,18-14.3,39-32.24,69.29-8.33,22.3-1,7.66,1.32,5.55,3.53,3.68,5.55,2,7.24.46,8.47-1.05,9.12-2.64,9.1-4.39,8.36-6.35,6.92-8.53,4.88-10.88,2.4-13.28-.27-15.54-2.91-17.47-5.25-18.9-7.08-19.63-17-38.46L857.12,59.44,846.5,35.49l-2.29-8.43,0-6.26,2.22-4.3,4.37-2.56L857,13l7.8.53,8.8,2.07,9.2,3.76L891.72,25l7.86,7.75,6.17,10.06,3.92,12.45L911,70l-1.35,16.85-3.89,18.47-6.06,19.46-16.19,38.91-29.63,59.72-3.58,9.23-1.4,7,.87,5,3.1,3.14,5.17,1.52H865l8.27-1.53,9-3.15,9.16-5,8.56-7,7.26-9.24,5.32-11.62,2.92-14,.26-16.18-2.4-18-4.82-19.19-6.77-19.72-8.09-19.45L876.37,69.91,862,42.7l-7.51-17.79L854,19.28l1.78-3.74,4-2.07,5.92-.52,7.53,1,8.66,2.57L891,20.83l9,6.27,8.12,8.44,6.55,10.79,4.4,13.19L920.94,75l-.82,17.41-3.42,18.85L911,130.85l-7.38,19.63-17.18,36.36-15.78,28.78L860.82,235,859,241.35l.42,4.38,2.67,2.63,4.79,1,6.61-.47,8-2,8.94-3.69,9.19-5.56,8.74-7.67L916,220l5.75-12.36,3.42-14.7.79-16.78L924,157.78l-4.37-19.43-6.43-19.72L896.7,81.38,868,30,864.81,23l-.95-5,1.34-3.21,3.54-1.58,5.56-.05,7.25,1.46L890,17.65l9.12,4.89,9.1,6.91,8.35,9.15,6.91,11.53L928.37,64l2.39,16.1-.29,17.92-2.93,19.16-5.26,19.71-7.09,19.48-8.27,18.51-17.26,31.78-13.85,22.67-6.67,13.54,0,3.81,2.24,2.13,4.38.58,6.28-.94,7.81-2.51,8.81-4.24,9.19-6.18,8.89-8.36,7.85-10.7,6.16-13.09L934.63,188,936,170.69l-1.37-18.8-3.91-19.61-6.07-19.64L917,93.71,899.68,60.56,875.23,21.22l-1.38-4.45.88-2.69L877.85,13l5.18.41,7,1.95L898.25,19l9,5.49L916.45,32,925,41.89l7.25,12.26,5.31,14.61,2.9,16.71.25,18.36-2.42,19.41L933.46,143l-6.77,19.26-8.1,18.09-8.71,16.32L879.4,244.26l-.48,3.28,1.79,1.64,4,.11,5.93-1.4,7.54-3,8.66-4.82,9.17-6.83,9-9.06,8.11-11.43,6.54-13.82,4.39-16L945.88,165l-.83-19.12-3.44-19.7-5.67-19.51-7.39-18.57-8.43-17L903,43.59,883.92,15.77l.43-2.2,2.69-.63,4.79.87,6.63,2.45,8,4.17,8.94,6.1,9.2,8.27,8.73,10.6,7.56,13,5.73,15.29L950.08,91l.78,18.76L949,129.3,944.57,149l-6.44,19-7.89,17.6L912.9,214.67l-23.16,30.78-.93,2.76,1.34,1.16,3.56-.35,5.57-1.88,7.25-3.55,8.48-5.41,9.13-7.5,9.09-9.78,8.35-12.17,6.9-14.52,4.85-16.63,2.38-18.31-.31-19.38-2.94-19.72-5.27-19.3-7.1-18.14-8.28-16.4-8.75-14.25-29-37.16,0-1.7,2.25-.17,4.39,1.34,14.11,7.69,8.81,6.75,9.2,9,8.88,11.34,7.84,13.72,6.15,15.94,3.9,17.79,1.31,19.09-1.39,19.69-3.92,19.53-6.07,18.62-7.66,17.06-8.56,15-17,23-17.55,20.08.89.7,3.13-.82L915,242.13l8.28-6,9-8.18,9.16-10.51L950,204.51l7.23-15.2,5.3-17.2,2.89-18.71.23-19.57-2.43-19.67-4.85-19-6.78-17.67-8.11-15.77L926.16,37l-22.3-24,1.8.29,9.93,5.31L931.8,31.34,941,41l9,12.08,8.1,14.43,6.53,16.55L969,102.35l1.84,19.35L970,141.43l-3.44,19.32L960.84,179l-7.4,16.48L945,209.77l-8.76,12L920.5,238.67l-11.71,10.74.51-.07,7.5-4.18,14.7-11.33,9-8.88,9.19-11.24,8.73-13.63,7.55-15.86,5.72-17.73L975,147.44l.77-19.68-1.92-19.55-4.4-18.66L963,72.41l-7.9-15.11-8.65-12.81L929.75,26l-16-13" transform="translate(-30.44 -12.56)"/></svg>