<?xml version="1.0" encoding="UTF-8" standalone="no"?>
<svg
   xmlns:dc="http://purl.org/dc/elements/1.1/"
   xmlns:cc="http://creativecommons.org/ns#"
   xmlns:rdf="http://www.w3.org/1999/02/22-rdf-syntax-ns#"
   xmlns:svg="http://www.w3.org/2000/svg"
   xmlns="http://www.w3.org/2000/svg"
   xmlns:sodipodi="http://sodipodi.sourceforge.net/DTD/sodipodi-0.dtd"
   xmlns:inkscape="http://www.inkscape.org/namespaces/inkscape"
   id="Layer_1"
   data-name="Layer 1"
   viewBox="0 0 1056 1056"
   version="1.1"
   sodipodi:docname="param1.svg"
   width="11in"
   height="11in"
   inkscape:version="1.0.1 (c497b03c, 2020-09-10)">
  <metadata
     id="metadata893">
    <rdf:RDF>
      <cc:Work
         rdf:about="">
        <dc:format>image/svg+xml</dc:format>
        <dc:type
           rdf:resource="http://purl.org/dc/dcmitype/StillImage" />
        <dc:title></dc:title>
      </cc:Work>
    </rdf:RDF>
  </metadata>
  <sodipodi:namedview
     pagecolor="#ffffff"
     bordercolor="#666666"
     borderopacity="1"
     objecttolerance="10"
     gridtolerance="10"
     guidetolerance="10"
     inkscape:pageopacity="0"
     inkscape:pageshadow="2"
     inkscape:window-width="1680"
     inkscape:window-height="951"
     id="namedview891"
     showgrid="false"
     units="in"
     inkscape:zoom="0.66955523"
     inkscape:cx="535.15794"
     inkscape:cy="510.07573"
     inkscape:window-x="0"
     inkscape:window-y="26"
     inkscape:window-maximized="0"
     inkscape:current-layer="Layer_1" />
  <defs
     id="defs884">
    <style
       id="style882">.cls-1{fill:none;stroke:#000;stroke-linecap:round;stroke-linejoin:round;stroke-opacity:0.7;}</style>
  </defs>
  <g
     id="expressions-d1db166c"
     transform="translate(213.64256,168.70421)">
    <g
       id="sketch-d1db166c-2"
       data-name="sketch-d1db166c">
      <path
         class="cls-1"
         d="m 396,72 v 0 l 12.72,0.34 12.7,1 12.66,1.66 12.6,2.34 25,6.67 24.48,9.25 23.84,11.74 23.1,14.17 22.2,16.47 21.15,18.64 20,20.63 18.68,22.47 17.27,24.11 15.75,25.57 14.14,26.79 12.43,27.81 10.65,28.6 8.8,29.13 6.91,29.45 5,29.5 1.74,14.69 1.18,14.66 0.75,14.51 0.25,14.38 -0.25,14.2 -0.75,14 -1.25,13.79 -1.75,13.54 -2.24,13.25 -2.72,12.93 -3.21,12.61 -3.7,12.23 -4.13,11.87 -4.63,11.44 -5.1,11 -5.58,10.56 -6,10.06 -6.43,9.56 -6.86,9 -7.28,8.49 -15.75,15.3 -17.27,12.94 -18.68,10.48 -9.83,4.28 -10.15,3.64 -10.44,3 -10.71,2.32 -11,1.65 -11.22,1 -11.44,0.31 -11.63,-0.39 -23.87,-2.73 -24.48,-5.39 -25,-8 L 421.42,693 396,680 l -25.42,-15.38 -25.26,-17.6 -25,-19.69 -24.48,-21.6 L 272,582.3 248.9,557.41 226.7,531.18 205.55,503.83 185.55,475.59 166.9,446.68 149.63,417.36 133.88,387.86 119.74,358.42 107.31,329.3 96.66,300.73 87.86,273 81,246.19 l -5,-25.51 -3,-24.07 -1,-22.4 0.25,-10.53 0.75,-10 1.25,-9.54 1.74,-9 2.24,-8.48 2.77,-7.97 3.21,-7.35 3.7,-6.75 4.09,-6.14 4.63,-5.53 5.1,-4.9 5.55,-4.27 6,-3.61 6.43,-3 6.86,-2.3 7.28,-1.63 7.68,-1 8.07,-0.29 17.27,1.44 18.68,4.11 20,6.75 21.15,9.34 22.2,11.85 23.1,14.33 23.87,16.55 24.49,18.71 25,20.71 25.26,22.52 25.38,24.16 25.42,25.61 25.26,26.84 25,27.84 24.48,28.61 23.84,29.16 23.1,29.44 22.2,29.5 21.15,29.3 20,28.87 18.68,28.19 17.24,27.25 15.75,26.14 14.14,24.86 12.43,23.23 10.65,21.48 8.8,19.55 6.91,17.46 5,15.22 3,12.86 1,10.38 -0.25,4.24 -0.8,3.58 -1.25,2.94 -1.75,2.24 -2.24,1.61 -2.72,0.94 -3.21,0.27 -3.7,-0.41 -8.8,-2.82 -10.65,-5.49 -12.43,-8.09 L 658.11,692.54 642.36,679.43 625.1,664 586.44,626.57 543.09,581.5 496.09,530.29 446.68,474.6 396,416.34 295.88,299.76 205.56,195.81 166.9,153 133.9,118.2 107.33,92.6 96.66,83.48 87.86,77 81,73.16 76,72 74.26,72.43 73,73.54 72.25,75.3 72,77.74 l 1,6.84 3,9.42 5,11.93 6.91,14.34 8.8,16.62 10.65,18.78 26.52,43.33 33,49.88 38.66,54.74 43.35,57.81 47,59 24.48,29.29 25,28.85 25.26,28.16 25.37,27.27 25.42,26.1 25.26,24.74 25,23.18 24.48,21.41 23.84,19.43 23.1,17.38 22.2,15.14 21.15,12.78 20,10.3 18.68,7.74 17.27,5.12 15.75,2.45 7.28,0.22 6.86,-0.45 6.43,-1.13 6,-1.79 5.55,-2.45 5.1,-3.12 4.63,-3.77 4.17,-4.42 3.7,-5.05 3.21,-5.68 2.72,-6.3 2.24,-6.89 1.74,-7.49 1.22,-8.05 0.75,-8.61 0.25,-9.14 -1,-19.83 -3,-21.73 -5,-23.46 -6.91,-25 -8.8,-26.31 -10.65,-27.42 -12.43,-28.3 -14.14,-28.94 -15.75,-29.34 -17.22,-29.5 -18.68,-29.42 -20,-29.09 -21.15,-28.52 -22.2,-27.72 L 520,244.39 496.12,219 l -24.48,-24 -25,-22.28 -25.26,-20.44 -25.38,-18.4 -25.42,-16.24 -25.26,-13.93 -25,-11.51 -24.48,-9 -23.84,-6.38 -23.1,-3.74 -11.22,-0.87 -11,-0.2 -10.68,0.48 -10.44,1.15 -10.15,1.81 -9.83,2.48 -9.51,3.14 -9.17,3.79 -17.27,9.52 -15.75,12 -7.28,6.91 -6.86,7.5 -6.43,8.08 -6,8.62 -5.55,9.17 -5.1,9.68 -4.66,10.2 -4.17,10.65 -3.7,11.11 -3.13,11.54 -2.72,11.95 -2.28,12.32 -1.75,12.69 -1.25,13 -0.75,13.32 -0.25,13.61 0.25,13.84 0.75,14.06 3,28.66 5,29.18 6.91,29.46 8.8,29.49 10.65,29.28 12.43,28.83 14.14,28.13 15.75,27.21 17.27,26.06 18.68,24.69 20,23.11 21.15,21.36 22.2,19.4 23.02,17.31 23.87,15.06 24.48,12.69 25,10.22 25.26,7.65 25.42,5 12.69,1.58 12.7,0.85 12.66,0.17 12.6,-0.5 12.53,-1.17 12.43,-1.84 12.36,-2.51 12.17,-3.16 23.83,-8.31 23.1,-10.82 22.2,-13.27 21.15,-15.62 20,-17.82 18.68,-19.9 17.27,-21.79 15.75,-23.51 14.14,-25 12.43,-26.36 10.62,-27.44 8.8,-28.32 3.7,-14.42 3.21,-14.54 2.72,-14.72 2.23,-14.69 1.74,-14.75 1.26,-14.75 0.75,-14.74 L 720,355.39 719.75,340.8 719,326.32 717.75,312 716,297.82 l -2.24,-14 -2.72,-13.73 -3.21,-13.46 -3.7,-13.18 -4.13,-12.82 -4.63,-12.51 -5.13,-12.12 -5.55,-11.75 -6,-11.34 -6.43,-10.91 -6.86,-10.43 -7.28,-9.94 -7.68,-9.43 -8.07,-8.91 -17.27,-16.17 -18.68,-13.85 -20,-11.42 L 565.29,83 554.29,79.52 543.07,76.7 531.63,74.54 520,73 l -11.85,-0.82 -12,-0.15 -12.15,0.52 -12.31,1.19 -25,4.39 -25.26,7 -25.43,9.62 -25.42,12.1 -25.26,14.5 -25,16.78 -24.48,18.92 -23.84,20.89 -23.1,22.71 -22.19,24.35 -21.15,25.74 -20,27 -18.66,27.87 -17.27,28.68 -15.75,29.19 -14.14,29.52 -12.43,29.49 -10.65,29.22 -8.8,28.8 -6.86,28.11 -5,27.17 -3,26 -0.75,12.51 -0.25,12.14 0.25,11.74 0.75,11.32 1.25,10.88 1.75,10.41 2.24,9.92 2.76,9.42 3.16,8.87 3.7,8.34 4.14,7.8 4.63,7.2 5.1,6.61 5.55,6 12.43,10.12 6.86,4.11 7.28,3.45 7.68,2.8 8.07,2.14 8.45,1.47 8.82,0.8 9.17,0.13 9.51,-0.55 20,-3.1 21.15,-5.75 22.2,-8.37 23.1,-10.91 23.87,-13.35 24.48,-15.69 25,-17.91 25.26,-20 25.39,-21.81 25.42,-23.53 25.26,-25.09 25,-26.4 24.44,-27.51 23.88,-28.36 23.1,-29 22.2,-29.36 21.15,-29.51 20,-29.41 18.68,-29.06 17.27,-28.47 15.75,-27.66 14.14,-26.6 12.43,-25.32 10.65,-23.85 8.8,-22.16 6.91,-20.3 5,-18.27 3,-16.09 1,-13.76 -0.25,-6 -0.83,-5.32 -1.25,-4.72 -1.75,-4.09 -2.24,-3.43 -2.72,-2.78 -3.21,-2.11 -3.7,-1.45 -4.13,-0.78 -4.63,-0.1 -10.65,1.81 -12.43,4.48 -14.14,7.11 -15.75,9.69 -17.3,12.18 -18.68,14.58 -20,16.86 -21.15,19 -22.2,21 -47,47.14 -49.44,52.78 -50.63,56.62 -50.68,58.71 -49.44,58.75 -90.32,110 -71.68,88.08 -26.57,32 L 87.86,705.38 76,717.69 72.25,720 72,719.41 l 1,-3.19 3,-5.85 11.87,-19.45 19.45,-29.21 26.57,-38 33,-45.54 38.66,-51.58 43.35,-55.89 47,-58.37 49.44,-58.91 50.66,-57.54 50.68,-54.18 25,-25.28 24.48,-23.79 23.84,-22.11 23.1,-20.23 22.2,-18.19 21.15,-16 20,-13.69 18.65,-11.26 17.27,-8.72 15.75,-6.12 14.14,-3.46 12.43,-0.79 5.55,0.61 5.1,1.29 4.63,2 4.17,2.62 3.7,3.27 3.21,3.93 2.72,4.57 2.23,5.16 1.74,5.83 1.25,6.44 0.75,7 0.25,7.62 -1,16.93 -3,19.06 -5,21 -6.91,22.83 -8.8,24.43 -10.65,25.84 -12.43,27 -14.14,28 -15.75,28.73 -17.21,29.29 -18.68,29.49 -20,29.48 -21.15,29.25 -22.2,28.77 -23.1,28 -23.87,27.1 -24.48,25.92 -25,24.54 -25.2,22.94 -25.42,21.19 -25.42,19.2 -25.26,17.08 -25,14.82 -24.48,12.44 -23.84,9.95 -23.1,7.38 -22.2,4.75 -21.15,2.09 H 195.4 l -9.83,-0.63 -9.5,-1.27 -9.17,-2 -8.82,-2.64 -8.45,-3.3 -8.07,-4 -7.68,-4.59 -14.14,-11.08 -6.43,-6.39 -6,-7.06 -5.55,-7.64 -5.1,-8.21 L 92,652.32 87.86,643 84.16,633.2 81,622.93 78.28,612.17 76,601 74.26,589.36 73.01,577.36 72.26,564.95 72,552.09 72.25,539 73,525.61 l 3,-27.55 5,-28.4 6.91,-29 8.8,-29.38 10.65,-29.51 12.43,-29.39 14.14,-29 15.75,-28.43 17.27,-27.59 18.68,-26.52 20,-25.23 21.15,-23.73 22.2,-22.05 23.02,-20.2 23.87,-18.12 24.48,-15.93 25,-13.6 25.26,-11.17 25.39,-8.63 25.42,-6 12.66,-2 12.6,-1.36 12.53,-0.68 h 12.43 l 12.31,0.66 12.17,1.33 12,2 11.88,2.6 11.66,3.32 11.44,4 22.2,9.86 21.15,12.35 20,14.74 18.68,17 17.27,19.13 15.75,21.09 7.28,11.23 6.86,11.66 6.43,12.05 6,12.43 5.55,12.78 5.1,13.1 4.63,13.4 4.17,13.66 3.7,13.91 3.21,14.11 2.72,14.3 2.2,14.44 1.74,14.57 1.26,14.66 0.75,14.73 0.25,14.75 -0.25,14.75 -0.75,14.73 -1.25,14.66 -1.75,14.57 -2.24,14.45 -2.72,14.3 -3.21,14.11 -3.7,13.91 -4.13,13.66 -4.63,13.4 -5.1,13.1 -5.55,12.78 -6,12.43 -6.43,12 -6.86,11.66 -7.28,11.23 -15.75,21.09 -17.3,19.17 -18.68,17 -20,14.74 -21.15,12.35 -22.18,9.91 -11.44,4 -11.65,3.27 -11.85,2.66 -12,2 -12.15,1.33 -12.31,0.66 h -12.48 l -12.53,-0.68 -12.6,-1.36 -12.66,-2 -25.42,-6 -25.42,-8.63 -25.26,-11.25 -25,-13.6 -24.48,-15.93 -23.84,-18.1 -23.1,-20.16 -22.2,-22.05 -21.15,-23.73 -20,-25.23 -18.65,-26.52 -17.27,-27.59 -15.75,-28.43 -14.14,-29 -12.43,-29.39 -10.65,-29.53 -8.8,-29.38 -6.91,-29 -5,-28.4 -3,-27.55 L 72.25,253 72,239.91 72.25,227.14 73,214.73 l 1.25,-12 1.75,-11.68 2.24,-11.22 2.76,-10.76 3.21,-10.3 3.7,-9.8 4.09,-9.29 4.63,-8.76 5.1,-8.21 5.55,-7.64 6,-7.06 6.43,-6.46 14.14,-11.08 7.68,-4.59 8.07,-3.95 8.45,-3.3 8.85,-2.63 9.17,-2 9.51,-1.31 9.83,-0.63 h 10.15 l 21.15,2.09 22.2,4.75 23.09,7.42 23.87,10 24.48,12.44 25,14.82 25.26,17.08 25.39,19.15 25.42,21.19 25.26,22.94 25,24.54 24.48,25.92 23.84,27.07 23.1,28 22.2,28.77 21.15,29.25 20,29.48 18.68,29.47 17.27,29.22 15.75,28.73 14.14,28 12.43,27 10.65,25.84 8.8,24.43 6.91,22.83 5,21 3,19.06 1,16.93 -0.25,7.62 -0.75,7 -1.25,6.44 -1.83,5.95 -2.24,5.21 -2.72,4.57 -3.21,3.93 -3.7,3.27 -4.13,2.62 -4.66,1.91 -5.1,1.29 -5.55,0.61 -12.43,-0.79 -14.14,-3.46 -15.75,-6.12 -17.27,-8.72 -18.68,-11.21 -20,-13.69 -21.15,-16 -22.2,-18.19 -23.07,-20.24 -23.87,-22.11 -24.48,-23.79 -25,-25.28 -50.65,-54.18 -50.68,-57.49 -49.44,-58.91 -47,-58.37 -43.35,-55.89 -38.63,-51.58 -33,-45.54 -26.57,-38 L 87.86,101.13 76,81.68 l -3,-5.85 -1,-3.19 0.25,-0.59 0.75,0.08 3,2.18 11.86,12.31 19.45,22.57 26.57,32.05 71.68,88.08 90.32,110 49.44,58.68 50.68,58.71 50.68,56.67 49.44,52.78 47,47.14 22.2,21 21.15,19 20,16.86 18.68,14.58 17.27,12.18 15.75,9.69 14.14,7.11 12.43,4.48 10.6,1.8 4.63,-0.1 4.17,-0.78 3.7,-1.45 3.21,-2.11 2.72,-2.78 2.24,-3.43 1.74,-4.09 1.25,-4.76 0.75,-5.36 0.25,-6 -1,-13.76 -3,-16.09 -5,-18.27 -6.91,-20.3 -8.8,-22.16 -10.65,-23.85 -12.43,-25.32 -14.14,-26.6 -15.75,-27.66 -17.22,-28.45 -18.68,-29.06 -20,-29.41 -21.13,-29.51 -22.2,-29.36 -23.1,-29 -23.87,-28.34 -24.48,-27.48 -25,-26.4 L 421.42,213 396,189.47 l -25.42,-21.85 -25.26,-20 -25,-17.91 L 295.84,114.02 272,100.71 248.91,89.8 l -22.2,-8.37 -21.15,-5.75 -20,-3.1 -9.49,-0.58 -9.17,0.13 -8.82,0.8 -8.45,1.47 -8.07,2.14 -7.68,2.8 -7.28,3.45 -6.86,4.11 -12.43,10.15 -5.55,6 -5.1,6.61 -4.66,7.2 -4.17,7.78 -3.67,8.36 -3.16,8.87 -2.72,9.42 -2.28,9.92 -1.74,10.41 -1.26,10.88 -0.75,11.32 -0.25,11.74 0.25,12.13 0.75,12.51 3,26 5,27.17 6.91,28.11 8.8,28.8 10.65,29.27 12.43,29.49 14.14,29.47 15.75,29.19 17.27,28.68 18.68,27.94 20,26.95 21.08,25.73 22.2,24.33 23.09,22.73 23.88,20.94 24.48,18.92 25,16.78 25.26,14.5 25.38,12.05 25.42,9.6 25.26,7 25,4.39 12.32,1.21 12.17,0.52 12,-0.15 11.83,-0.82 11.66,-1.49 11.44,-2.16 11.22,-2.82 11,-3.48 21.15,-8.9 20,-11.42 18.68,-13.85 17.27,-16.16 8.07,-8.91 7.68,-9.43 7.28,-9.94 6.81,-10.44 6.43,-10.89 6,-11.34 5.55,-11.77 5.1,-12.15 4.66,-12.48 4.17,-12.86 3.7,-13.18 3.21,-13.46 2.72,-13.73 2.24,-14 L 717.75,480 719,465.68 719.75,451.2 720,436.61 719.75,421.93 719,407.19 717.75,392.44 716,377.69 713.77,363 l -2.72,-14.65 -3.21,-14.54 -3.7,-14.42 -8.8,-28.32 -10.65,-27.47 -12.43,-26.36 -14.14,-25 L 642.37,188.73 625.1,166.9 606.42,147 586.42,129.18 565.27,113.56 543.07,100.29 520,89.47 496.13,81.19 484,78 l -12.31,-2.5 -12.43,-1.84 -12.53,-1.17 -12.6,-0.5 -12.66,0.17 -12.7,0.85 -12.77,1.54 -25.42,5 -25.26,7.65 -25,10.22 -24.48,12.69 -23.84,15.09 -23.1,17.31 -22.2,19.4 -21.15,21.36 -20,23.11 -18.65,24.69 -17.27,26.06 -15.75,27.21 -14.14,28.13 -12.43,28.83 -10.65,29.28 -8.8,29.49 -6.86,29.46 -5,29.18 -3,28.66 -0.75,14.06 -0.25,13.84 0.25,13.6 0.75,13.32 1.25,13 1.75,12.7 2.24,12.32 2.76,11.95 3.21,11.54 3.7,11.11 4.09,10.65 4.63,10.18 5.1,9.68 5.55,9.17 6,8.62 6.43,8.08 6.86,7.5 7.28,6.91 15.75,12 17.27,9.52 9.17,3.79 9.51,3.14 9.83,2.48 10.15,1.81 10.47,1.17 10.71,0.48 11,-0.2 11.22,-0.87 23.1,-3.74 23.87,-6.4 24.48,-9 25,-11.51 25.26,-13.93 25.36,-16.22 25.42,-18.41 25.26,-20.44 25,-22.28 24.48,-24 23.84,-25.38 23.1,-26.68 22.2,-27.72 21.15,-28.52 20,-29.09 18.68,-29.42 17.27,-29.51 15.75,-29.34 14.14,-28.94 12.43,-28.3 10.65,-27.42 8.8,-26.31 6.91,-25 5,-23.46 3,-21.73 1,-19.83 -0.25,-9.14 -0.83,-8.6 -1.25,-8 -1.75,-7.54 -2.24,-6.89 -2.72,-6.3 -3.21,-5.68 -3.7,-5 -4.13,-4.47 -4.66,-3.72 -5.1,-3.12 -5.55,-2.45 -6,-1.79 -6.43,-1.13 -6.86,-0.51 -7.28,0.22 -15.75,2.45 -17.27,5.13 -18.68,7.74 -20,10.3 -21.15,12.78 -22.2,15.14 -23.07,17.38 -23.87,19.48 -24.49,21.38 -25,23.17 -25.22,24.83 -25.42,26.05 -25.42,27.24 -25.26,28.16 -25,28.85 -24.48,29.29 -47,59 -43.35,57.81 -38.59,54.69 -33,49.88 -26.57,43.35 -10.67,18.78 -8.8,16.62 -6.86,14.34 -5,11.94 -3,9.43 -1,6.84 0.25,2.44 0.75,1.76 1.25,1.1 1.75,0.43 5,-1.15 6.86,-3.85 8.8,-6.48 10.65,-9.08 26.57,-25.6 33,-34.8 38.66,-42.85 90.32,-104 100.14,-116.53 50.68,-58.26 49.44,-55.66 47,-51.21 43.35,-45.07 38.63,-37.46 17.27,-15.46 15.75,-13.11 14.14,-10.65 12.43,-8.09 10.65,-5.49 8.8,-2.82 3.7,-0.41 3.21,0.27 2.72,0.94 2.23,1.64 1.74,2.27 1.26,2.91 0.75,3.59 0.25,4.24 -1,10.38 -3,12.86 -5,15.22 -6.91,17.46 -8.8,19.55 -10.65,21.48 -12.38,23.22 -14.14,24.79 -15.75,26.21 -17.27,27.25 -18.68,28.19 -20,28.87 -21.15,29.3 -22.2,29.5 -23.07,29.44 -23.87,29.16 -24.48,28.61 -25,27.84 -25.23,26.84 -25.42,25.61 -25.42,24.17 -25.26,22.52 -25,20.71 -24.48,18.7 -23.84,16.55 -23.1,14.25 -22.2,11.85 -21.15,9.34 -20,6.75 -18.68,4.11 -17.24,1.44 -8.07,-0.29 -7.68,-1 -7.28,-1.63 -6.86,-2.3 -6.43,-3 -6,-3.61 -5.55,-4.17 -5.1,-4.9 -4.66,-5.55 -4.17,-6.14 -3.7,-6.75 -3.13,-7.35 -2.72,-7.91 -2.28,-8.48 -1.74,-9 -1.26,-9.56 -0.75,-10 -0.25,-10.57 1,-22.4 3,-24.07 5,-25.51 6.91,-26.76 8.8,-27.78 10.65,-28.57 12.43,-29.12 14.14,-29.44 15.75,-29.5 17.27,-29.32 18.68,-28.91 20,-28.24 21.15,-27.35 22.2,-26.23 23.02,-24.89 23.87,-23.35 24.48,-21.6 25,-19.69 25.26,-17.6 25.39,-15.38 25.42,-13 25.26,-10.56 25,-8 24.48,-5.39 23.84,-2.77 11.65,-0.36 11.44,0.31 11.22,1 11,1.65 10.69,2.31 10.44,3 10.15,3.64 9.83,4.28 18.68,10.46 17.27,12.94 15.75,15.3 7.28,8.49 6.86,9 6.43,9.56 6,10.06 5.55,10.54 5.1,11 4.66,11.46 4.17,11.85 3.7,12.23 3.21,12.61 2.72,12.93 2.2,13.27 1.74,13.53 1.26,13.79 0.75,14 0.25,14.2 -0.25,14.38 -0.75,14.52 -1.25,14.62 -1.75,14.69 -5,29.5 -6.91,29.45 -8.8,29.13 -10.65,28.6 -12.43,27.81 -14.09,26.79 -15.75,25.57 -17.27,24.11 -18.68,22.47 -20,20.63 -21.15,18.64 -22.2,16.47 L 520,687 l -23.87,11.76 -24.49,9.24 -25,6.67 -12.56,2.33 -12.66,1.68 -12.7,1 -12.72,0.32 -12.72,-0.34 -12.7,-1 -12.66,-1.66 -12.6,-2.34 -25,-6.67 -24.48,-9.25 L 272,687 248.9,672.83 226.7,656.36 205.55,637.72 185.55,617.09 166.9,594.58 149.63,570.47 133.88,544.9 119.74,518.11 107.31,490.3 96.66,461.7 87.86,432.57 81,403.12 76,373.62 74.26,358.93 73,344.31 72.25,329.8 72,315.42 72.25,301.22 73,287.22 74.25,273.43 76,259.89 78.24,246.64 81,233.71 84.21,221.1 87.91,208.87 92,197 l 4.63,-11.44 5.1,-11 5.58,-10.56 6,-10.06 6.43,-9.56 6.86,-9 7.28,-8.49 15.75,-15.3 17.27,-12.94 18.68,-10.48 9.83,-4.28 10.15,-3.64 10.44,-3 10.71,-2.25 11,-1.65 11.22,-1 11.42,-0.35 11.66,0.36 23.87,2.73 24.48,5.39 25,8 25.26,10.56 25.42,13 25.42,15.38 25.26,17.6 25,19.69 24.48,21.6 23.8,23.39 23.1,24.89 22.2,26.23 21.15,27.35 20,28.24 18.68,28.91 17.27,29.32 15.75,29.5 14.14,29.44 12.43,29.12 10.65,28.57 8.8,27.78 6.91,26.76 5,25.51 3,24.07 1,22.4 -0.25,10.53 -0.75,10 -1.25,9.54 -1.74,9 -2.24,8.48 -2.72,7.91 -3.21,7.35 -3.7,6.75 -4.22,6.2 -4.63,5.53 -5.1,4.9 -5.55,4.27 -6,3.61 -6.43,3 -6.86,2.3 -7.28,1.63 -7.68,1 -8.07,0.29 -17.27,-1.44 -18.68,-4.11 -20,-6.75 L 565.3,698.44 543.1,686.59 520,672.26 496.13,655.71 471.64,637 446.64,616.29 421.38,593.77 396,569.61 370.58,544 l -25.26,-26.84 -25,-27.84 -24.48,-28.61 -23.84,-29.16 -23.1,-29.44 -22.2,-29.5 -21.15,-29.3 -20,-28.87 L 166.9,286.25 149.63,259 133.88,232.86 119.74,208 107.31,184.77 96.66,163.33 87.86,143.78 81,126.32 76,111.1 73,98.24 72,87.86 72.25,83.62 73,80 74.25,77.06 76,74.82 78.24,73.21 81,72.27 84.16,72 l 3.7,0.41 8.8,2.82 10.65,5.49 12.43,8.09 14.14,10.65 15.75,13.11 17.27,15.43 38.66,37.43 43.35,45.07 47,51.21 49.44,55.66 50.65,58.29 100.12,116.58 90.32,104 38.66,42.76 33,34.8 26.57,25.6 10.65,9.08 8.8,6.48 6.91,3.84 5,1.15 1.74,-0.43 1.25,-1.1 0.75,-1.76 0.25,-2.44 -1,-6.84 -3.02,-9.38 -5,-11.93 -6.91,-14.34 -8.8,-16.62 -10.65,-18.78 -26.52,-43.33 -33,-49.88 -38.66,-54.74 -43.35,-57.81 -47,-59 -24.47,-29.27 -25,-28.85 L 421.38,285.29 396,258.05 370.58,232 345.32,207.26 320.32,184.09 295.84,162.67 272,143.14 248.9,125.76 226.7,110.62 205.56,97.84 185.56,87.54 166.9,79.8 149.63,74.68 133.88,72.23 126.6,72 l -6.86,0.45 -6.43,1.13 -6,1.79 -5.55,2.45 -5.1,3.18 -4.66,3.72 -4.17,4.42 -3.7,5 -3.13,5.73 -2.72,6.3 -2.28,6.89 -1.74,7.49 -1.25,8 -0.75,8.61 -0.26,9.19 1,19.83 3,21.73 5,23.46 6.91,25 8.8,26.31 10.65,27.42 12.43,28.3 14.14,28.94 15.75,29.34 17.27,29.51 18.68,29.42 20,29.09 21.15,28.52 22.2,27.72 23.02,26.67 23.88,25.39 24.48,24 25,22.28 25.26,20.44 25.38,18.4 25.42,16.24 25.26,13.93 25,11.51 24.48,9 23.87,6.4 23.1,3.74 11.22,0.87 11,0.2 10.71,-0.48 10.44,-1.15 10.15,-1.81 9.83,-2.48 9.51,-3.14 9.17,-3.79 17.27,-9.52 15.75,-12 7.28,-6.91 6.86,-7.5 6.43,-8.08 6,-8.62 5.55,-9.17 5.1,-9.68 4.6,-10.22 4.17,-10.65 3.7,-11.11 3.21,-11.54 2.72,-11.95 2.2,-12.32 1.74,-12.69 1.25,-13 0.75,-13.32 0.25,-13.6 -0.25,-13.84 -0.74,-14.07 -3,-28.66 -5,-29.18 -6.91,-29.46 -8.8,-29.49 -10.6,-29.28 -12.43,-28.83 -14.14,-28.13 -15.75,-27.21 -17.27,-26.06 -18.68,-24.69 -20,-23.11 -21.15,-21.36 -22.2,-19.4 L 520,125.2 496.13,110.14 471.64,97.45 l -25,-10.22 -25.26,-7.65 -25.42,-5 L 383.28,73 370.58,72.15 357.92,72 l -12.6,0.5 -12.53,1.17 -12.43,1.84 -12.31,2.49 -12.17,3.16 -23.88,8.31 -23.1,10.82 -22.2,13.27 -21.15,15.62 -20,17.82 -18.65,19.9 -17.27,21.79 -15.75,23.51 -14.14,25 -12.43,26.4 -10.65,27.45 -8.8,28.32 -3.7,14.42 L 81,348.33 78.23,363 76,377.69 74.26,392.44 73,407.19 72.25,421.93 72,436.61 72.25,451.2 73,465.68 74.25,480 76,494.18 l 2.24,14 2.76,13.69 3.21,13.46 3.7,13.18 4.09,12.86 4.63,12.51 5.1,12.15 5.55,11.75 6,11.34 6.46,10.88 6.86,10.43 7.28,9.94 7.68,9.43 8.07,8.91 17.27,16.16 18.68,13.85 20,11.42 21.15,8.9 11,3.48 11.22,2.82 11.44,2.16 11.61,1.5 11.85,0.82 12,0.15 12.17,-0.52 12.31,-1.19 25,-4.39 25.26,-7 25.42,-9.6 25.42,-12.1 25.26,-14.5 25,-16.78 L 496.12,635 520,614.06 543.1,591.35 565.29,567 l 21.15,-25.74 20,-26.95 18.68,-27.94 17.27,-28.68 15.75,-29.19 14.14,-29.47 12.43,-29.49 10.65,-29.27 8.8,-28.8 6.91,-28.11 5,-27.17 3,-26 0.75,-12.51 0.25,-12.13 -0.25,-11.74 -0.82,-11.31 -1.25,-10.88 -1.75,-10.41 -2.24,-9.92 -2.72,-9.42 -3.2,-8.87 -3.7,-8.34 -4.14,-7.8 -4.63,-7.2 -5.1,-6.61 -5.55,-6 -12.46,-10.12 -6.86,-4.11 -7.28,-3.45 -7.68,-2.8 -8.07,-2.14 -8.45,-1.43 -8.82,-0.8 -9.17,-0.2 -9.51,0.55 -20,3.1 -21.15,5.75 -22.2,8.37 -23.07,10.94 -23.87,13.35 -24.48,15.69 -25,17.91 -25.26,20 -25.39,21.81 -25.42,23.53 -25.26,25.09 -25,26.4 -24.44,27.51 -23.88,28.36 -23.1,29 -22.2,29.36 -21.15,29.51 -20,29.41 -18.65,29.04 -17.27,28.47 -15.75,27.66 -14.14,26.6 -12.43,25.32 -10.65,23.85 -8.8,22.16 L 81,641 l -5,18.27 -3,16.13 -1,13.76 0.25,6 0.75,5.34 1.25,4.72 1.75,4.09 2.24,3.43 2.76,2.78 3.21,2.11 3.7,1.45 4.17,0.78 4.63,0.1 10.65,-1.81 12.43,-4.48 14.14,-7.11 15.75,-9.69 17.27,-12.18 18.68,-14.58 20,-16.86 21.15,-19 22.2,-21 47,-47.14 49.44,-52.78 50.58,-56.62 50.68,-58.71 49.44,-58.75 90.32,-110 71.68,-88.08 26.57,-32.05 19.45,-22.57 11.86,-12.24 3.74,-2.26 0.25,0.59 -1,3.19 -3,5.85 -11.87,19.45 -19.45,29.21 -26.57,38 -33,45.54 -38.66,51.58 -43.35,55.89 -47,58.37 -49.44,58.91 -50.65,57.49 -50.68,54.18 -25,25.28 -24.48,23.79 -23.84,22.11 -23.1,20.23 -22.2,18.19 -21.15,16 -20,13.69 -18.65,11.26 -17.27,8.72 -15.75,6.12 -14.14,3.46 -12.43,0.79 -5.55,-0.61 L 96.66,718 92,716.09 87.83,713.47 84.13,710.2 81,706.27 78.28,701.7 76,696.49 74.26,690.66 73,684.22 l -0.75,-7 -0.25,-7.66 1,-16.93 3,-19.06 5,-21 6.91,-22.83 8.8,-24.43 10.65,-25.84 12.43,-27 14.14,-28 15.75,-28.73 17.27,-29.22 18.63,-29.52 20,-29.48 21.15,-29.25 22.2,-28.77 23.1,-28 23.87,-27.1 24.48,-25.92 25,-24.54 25.2,-22.94 25.42,-21.19 25.42,-19.2 25.26,-17.08 25,-14.82 24.48,-12.44 23.87,-10 23.1,-7.38 22.2,-4.75 21.15,-2.09 h 10.15 l 9.83,0.63 9.47,1.32 9.17,2 8.82,2.64 8.45,3.3 8.07,3.95 7.68,4.59 14.14,11.08 6.43,6.46 6,7.06 5.55,7.64 5.1,8.21 4.63,8.76 4.17,9.29 3.7,9.8 3.21,10.3 2.72,10.76 2.23,11.21 1.74,11.64 1.25,12 0.75,12.41 0.25,12.77 -0.24,13.13 -0.75,13.39 -3,27.55 -5,28.4 -6.91,29 -8.8,29.38 -10.65,29.51 -12.43,29.39 -14.14,29 -15.75,28.43 -17.22,27.63 -18.68,26.52 -20,25.23 -21.15,23.73 -22.2,22.05 -23.07,20.16 -23.87,18.12 -24.48,15.93 -25,13.6 -25.26,11.17 -25.39,8.63 -25.42,6 -12.66,2 -12.6,1.36 -12.53,0.68 h -12.43 l -12.31,-0.66 -12.17,-1.33 -12,-2 -11.88,-2.6 -11.65,-3.27 -11.44,-4 -22.2,-9.86 -21.15,-12.35 -20,-14.74 -18.66,-17.05 -17.27,-19.13 -15.75,-21.09 -7.28,-11.23 -6.86,-11.66 -6.43,-12 -6,-12.43 -5.55,-12.78 -5.1,-13.1 L 92,525.14 87.83,511.48 84.13,497.57 81,483.46 78.28,469.16 76,454.71 74.26,440.14 73,425.48 72.25,410.75 72,396 72.25,381.25 73,366.52 74.25,351.86 76,337.29 l 2.24,-14.45 2.76,-14.3 3.21,-14.11 3.7,-13.91 4.09,-13.66 4.63,-13.4 5.1,-13.1 5.55,-12.78 6,-12.43 6.43,-12.05 6.86,-11.66 7.28,-11.23 15.75,-21.09 17.3,-19.12 18.68,-17 20,-14.74 21.15,-12.35 22.18,-9.91 11.44,-4 11.65,-3.27 11.85,-2.66 12,-2 12.17,-1.33 12.31,-0.66 h 12.43 l 12.53,0.68 12.6,1.36 12.66,2 25.42,6 25.42,8.63 25.29,11.25 25,13.6 24.48,15.93 23.84,18.1 23.1,20.16 22.2,22.05 21.15,23.73 20,25.23 18.68,26.52 17.27,27.59 15.75,28.43 14.14,29 12.43,29.39 10.65,29.51 8.8,29.38 6.91,29 5,28.4 3,27.55 0.75,13.39 0.25,13.09 -0.25,12.77 -0.83,12.45 -1.25,12 -1.75,11.73 -2.24,11.22 -2.72,10.76 -3.21,10.3 -3.7,9.8 -4.13,9.24 -4.63,8.76 -5.1,8.21 -5.55,7.64 -6,7.06 -6.43,6.46 -14.14,11.08 -7.68,4.59 -8.07,4 -8.45,3.3 -8.85,2.58 -9.17,2 -9.51,1.31 -9.83,0.63 h -10.15 l -21.15,-2.09 -22.2,-4.75 -23.09,-7.42 -23.87,-9.95 -24.48,-12.44 -25,-14.82 L 421.39,651.39 396,632.19 370.58,611 345.32,588.06 320.32,563.52 295.84,537.6 272,510.53 l -23.1,-28 -22.2,-28.77 -21.15,-29.25 -20,-29.48 -18.65,-29.52 -17.27,-29.22 -15.75,-28.73 -14.14,-28 -12.43,-27 -10.65,-25.85 -8.8,-24.43 -6.86,-22.83 -5,-21 -3,-19.06 -1,-16.93 0.25,-7.62 0.75,-7 1.25,-6.44 1.75,-5.89 2.24,-5.21 2.76,-4.57 3.21,-3.93 3.7,-3.27 4.09,-2.62 4.63,-2 5.1,-1.29 5.55,-0.61 12.43,0.79 14.14,3.46 15.75,6.12 17.27,8.72 18.68,11.25 20,13.69 21.15,16 22.2,18.19 23.1,20.29 23.87,22.11 24.48,23.79 25,25.28 50.65,54.18 50.68,57.49 49.44,58.91 47,58.37 43.35,55.89 38.66,51.58 33,45.54 26.57,38 19.45,29.21 11.85,19.45 3,5.85 1,3.19 -0.25,0.59 -0.75,-0.08 -3,-2.18 -11.87,-12.31 -19.45,-22.57 -26.57,-32 -71.68,-88.08 -90.32,-110 L 446.68,394 396,335.29 l -50.68,-56.67 -49.44,-52.78 -47,-47.14 -22.2,-21 -21.15,-19 -20,-16.86 L 166.9,107.31 149.63,95.13 133.88,85.44 119.74,78.33 107.31,73.85 96.66,72 92.03,72.1 87.86,72.88 84.16,74.33 81,76.48 78.28,79.26 76,82.69 74.26,86.78 73,91.5 l -0.75,5.36 -0.25,6 1,13.76 3,16.09 5,18.29 6.91,20.3 8.8,22.16 10.65,23.85 12.43,25.32 14.14,26.6 15.75,27.66 17.27,28.47 18.68,29.06 20,29.41 21.15,29.51 22.2,29.36 23.1,29 23.8,28.3 24.48,27.48 25,26.4 25.22,25.12 25.42,23.53 25.42,21.85 25.26,20 25,17.91 24.48,15.69 23.84,13.31 23.1,10.91 22.2,8.37 21.15,5.75 20,3.1 9.51,0.55 9.17,-0.13 8.82,-0.8 8.45,-1.47 8.07,-2.14 7.68,-2.8 7.28,-3.45 6.86,-4.11 12.4,-10.07 5.55,-6 5.1,-6.61 4.63,-7.2 4.17,-7.78 3.7,-8.34 3.21,-8.89 2.72,-9.42 2.24,-9.92 1.74,-10.41 1.25,-10.93 0.75,-11.32 0.25,-11.74 -0.25,-12.13 -0.75,-12.51 -3,-26 -5,-27.17 -6.91,-28.11 -8.8,-28.8 -10.65,-29.27 -12.38,-29.45 -14.14,-29.47 -15.75,-29.19 -17.27,-28.73 -18.68,-27.94 -20,-27 L 565.29,225 543.09,200.67 520,177.94 l -23.87,-20.89 -24.48,-18.92 -25,-16.78 -25.26,-14.5 -25.39,-12.1 -25.42,-9.6 -25.26,-7 -25,-4.39 -12.31,-1.19 -12.13,-0.57 -12,0.15 L 272,73 l -11.66,1.49 -11.44,2.16 -11.22,2.82 -11,3.48 -21.15,8.9 -20,11.42 -18.63,13.85 -17.27,16.16 -8.07,8.91 -7.68,9.43 -7.28,9.94 -6.86,10.44 -6.43,10.89 -6,11.34 -5.55,11.77 -5.1,12.15 -4.66,12.48 -4.17,12.86 -3.7,13.18 -3.13,13.46 -2.72,13.73 -2.24,14 L 74.25,312 73,326.32 72.25,340.8 72,355.39 l 0.25,14.68 0.75,14.74 1.25,14.75 1.75,14.75 2.23,14.69 2.77,14.67 3.21,14.54 3.7,14.42 8.75,28.37 10.65,27.45 12.43,26.36 14.14,25 15.75,23.51 17.27,21.78 18.68,19.9 20,17.82 21.15,15.62 22.2,13.27 23.07,10.82 23.87,8.28 12.18,3.19 12.31,2.5 12.43,1.84 12.53,1.17 12.6,0.5 12.66,-0.17 12.7,-0.85 12.72,-1.54 25.42,-5 25.26,-7.65 25,-10.22 24.48,-12.69 23.84,-15.09 23.1,-17.31 22.2,-19.4 21.15,-21.36 20,-23.11 18.68,-24.69 17.27,-26.06 15.75,-27.21 14.14,-28.13 12.43,-28.83 10.65,-29.28 8.8,-29.49 6.91,-29.46 5,-29.18 3,-28.66 0.75,-14.06 0.25,-13.84 -0.25,-13.6 -0.83,-13.32 -1.25,-13 -1.75,-12.7 -2.24,-12.32 -2.72,-11.95 -3.21,-11.54 -3.7,-11.11 -4.13,-10.65 -4.63,-10.18 -5.1,-9.68 -5.55,-9.17 -6,-8.62 -6.43,-8.08 -6.86,-7.5 -7.28,-6.91 -15.75,-12 -17.3,-9.54 -9.17,-3.79 -9.51,-3.14 -9.83,-2.48 L 586.44,73.64 576,72.49 565.29,72 l -11,0.2 -11.22,0.87 -23.07,3.75 -23.87,6.4 -24.48,9 -25,11.51 -25.26,13.93 -25.39,16.22 -25.42,18.41 -25.26,20.44 -25,22.28 -24.48,24 -23.84,25.38 -23.1,26.68 -22.2,27.72 -21.15,28.52 -20,29.09 -18.65,29.42 -17.27,29.51 -15.75,29.34 -14.14,28.94 -12.43,28.3 -10.65,27.42 -8.8,26.31 -6.91,25 -5,23.46 -3,21.73 -1,19.83 0.25,9.14 0.8,8.6 1.25,8.05 1.75,7.49 2.24,6.89 2.72,6.3 3.21,5.68 3.7,5.05 4.13,4.42 4.63,3.77 5.1,3.12 5.55,2.45 6,1.79 6.43,1.13 6.86,0.45 7.28,-0.22 15.75,-2.45 17.27,-5.12 18.68,-7.74 20,-10.3 21.15,-12.78 22.2,-15.14 23.1,-17.38 23.87,-19.48 24.49,-21.38 25,-23.18 25.26,-24.74 L 396,534 l 25.42,-27.24 25.26,-28.16 25,-28.85 24.48,-29.29 47,-59 43.35,-57.81 38.66,-54.74 33,-49.88 26.57,-43.35 10.65,-18.78 8.8,-16.62 6.91,-14.34 4.9,-11.94 3,-9.43 1,-6.84 -0.25,-2.44 L 719,73.54 717.75,72.44 716,72 l -5,1.15 -6.86,3.85 -8.8,6.48 -10.65,9.08 -26.57,25.6 -33,34.8 -38.66,42.85 -90.32,104 -100.14,116.53 -50.68,58.26 -49.44,55.66 -47,51.21 -43.35,45.07 -38.63,37.46 -17.27,15.46 -15.75,13.11 -14.14,10.65 -12.43,8.09 -10.65,5.49 -8.8,2.82 -3.7,0.41 L 81,719.73 78.28,718.79 76,717.18 74.26,714.91 73,712 72.25,708.41 72,704.14 l 1,-10.38 3,-12.86 5,-15.22 6.91,-17.46 8.8,-19.55 10.65,-21.48 12.38,-23.19 14.14,-24.79 15.75,-26.21 17.27,-27.28 18.68,-28.19 20,-28.87 21.15,-29.3 22.2,-29.5 23.07,-29.41 23.87,-29.16 24.48,-28.61 25,-27.84 25.23,-26.84 25.42,-25.61 25.42,-24.17 25.26,-22.52 25,-20.71 24.48,-18.7 23.84,-16.55 23.1,-14.25 22.2,-11.85 21.15,-9.34 20,-6.75 18.68,-4.11 17.24,-1.44 8.07,0.29 7.68,1 7.28,1.63 6.86,2.3 6.43,3 6,3.61 5.55,4.17 5.1,4.9 4.66,5.55 4.17,6.14 3.7,6.75 3.21,7.35 2.72,7.91 2.24,8.48 1.74,9 1.25,9.54 0.75,10 0.25,10.53 -1,22.4 -3,24.07 -5,25.51 -6.89,26.87 -8.8,27.78 -10.65,28.52 -12.43,29.12 -14.14,29.44 -15.75,29.5 -17.27,29.32 -18.68,28.91 -20,28.24 -21.15,27.35 -22.2,26.23 -23.07,24.89 -23.87,23.35 -24.48,21.6 -25,19.69 -25.26,17.6 -25.39,15.38 -25.42,13 -25.26,10.56 -25,8 -24.48,5.39 -23.84,2.77 -11.66,0.36 -11.44,-0.31 -11.22,-1 -11,-1.65 -10.68,-2.31 -10.44,-3 -10.15,-3.64 -9.83,-4.28 -18.68,-10.46 -17.27,-12.94 -15.75,-15.3 -7.28,-8.49 -6.86,-9 -6.43,-9.62 -6,-10.06 -5.55,-10.54 -5.1,-11 L 92,595 87.83,583.15 84.13,570.92 81,558.29 78.28,545.36 76,532.11 74.26,518.58 73,504.79 72.25,490.79 72,476.58 72.25,462.2 73,447.69 74.25,433.07 76,418.38 l 5,-29.5 6.91,-29.45 8.8,-29.13 10.65,-28.6 12.43,-27.81 14.14,-26.79 15.75,-25.57 17.27,-24.11 18.63,-22.42 20,-20.63 21.15,-18.64 22.2,-16.47 L 272,105 295.87,93.24 320.36,84 l 25,-6.67 12.56,-2.33 12.66,-1.68 12.7,-1 L 396,72 l 12.72,0.34 12.7,1 12.66,1.66 12.6,2.34 25,6.67 24.48,9.25 23.84,11.74 23.1,14.17 22.2,16.47 21.15,18.64 20,20.63 18.68,22.47 17.27,24.11 15.75,25.57 14.14,26.79 12.43,27.81 10.65,28.6 8.8,29.13 6.91,29.45 5,29.5 1.74,14.69 1.18,14.66 0.75,14.51 0.25,14.38 -0.25,14.2 -0.75,14 -1.25,13.79 -1.75,13.54 -2.24,13.25 -2.72,12.93 -3.21,12.61 -3.7,12.23 -4.13,11.87 -4.63,11.44 -5.1,11 -5.58,10.56 -6,10.06 -6.43,9.56 -6.86,9 -7.28,8.49 -15.75,15.3 -17.27,12.94 -18.68,10.48 -9.83,4.28 -10.15,3.64 -10.44,3 -10.71,2.32 -11,1.65 -11.22,1 -11.44,0.31 -11.63,-0.39 -23.87,-2.73 -24.48,-5.39 -25,-8 L 421.42,693 396,680 l -25.42,-15.38 -25.26,-17.6 -25,-19.69 -24.48,-21.6 L 272,582.3 248.9,557.41 226.7,531.18 205.55,503.83 185.55,475.59 166.9,446.68 149.63,417.36 133.88,387.86 119.74,358.42 107.31,329.3 96.66,300.73 87.86,273 81,246.19 l -5,-25.51 -3,-24.07 -1,-22.4 0.25,-10.53 0.75,-10 1.25,-9.54 1.74,-9 2.24,-8.48 2.77,-7.97 3.21,-7.35 3.7,-6.75 4.09,-6.14 4.63,-5.53 5.1,-4.9 5.55,-4.27 6,-3.61 6.43,-3 6.86,-2.3 7.28,-1.63 7.68,-1 8.07,-0.29 17.27,1.44 18.68,4.11 20,6.75 21.15,9.34 22.2,11.85 23.1,14.33 23.87,16.55 24.49,18.71 25,20.71 25.26,22.52 25.38,24.16 25.42,25.61 25.26,26.84 25,27.84 24.48,28.61 23.84,29.16 23.1,29.44 22.2,29.5 21.15,29.3 20,28.87 18.68,28.19 17.24,27.25 15.75,26.14 14.14,24.86 12.43,23.23 10.65,21.48 8.8,19.55 6.91,17.46 5,15.22 3,12.86 1,10.38 -0.25,4.24 -0.8,3.58 -1.25,2.94 -1.75,2.24 -2.24,1.61 -2.72,0.94 -3.21,0.27 -3.7,-0.41 -8.8,-2.82 -10.65,-5.49 -12.43,-8.09 L 658.11,692.54 642.36,679.43 625.1,664 586.44,626.57 543.09,581.5 496.09,530.29 446.68,474.6 396,416.34 295.88,299.76 205.56,195.81 166.9,153 133.9,118.2 107.33,92.6 96.66,83.48 87.86,77 81,73.16 76,72 74.26,72.43 73,73.54 72.25,75.3 72,77.74 l 1,6.84 3,9.42 5,11.93 6.91,14.34 8.8,16.62 10.65,18.78 26.52,43.33 33,49.88 38.66,54.74 43.35,57.81 47,59 24.48,29.29 25,28.85 25.26,28.16 25.37,27.27 25.42,26.1 25.26,24.74 25,23.18 24.48,21.41 23.84,19.43 23.1,17.38 22.2,15.14 21.15,12.78 20,10.3 18.68,7.74 17.27,5.12 15.75,2.45 7.28,0.22 6.86,-0.45 6.43,-1.13 6,-1.79 5.55,-2.45 5.1,-3.12 4.63,-3.77 4.17,-4.42 3.7,-5.05 3.21,-5.68 2.72,-6.3 2.24,-6.89 1.74,-7.49 1.22,-8.05 0.75,-8.61 0.25,-9.14 -1,-19.83 -3,-21.73 -5,-23.46 -6.91,-25 -8.8,-26.31 -10.65,-27.42 -12.43,-28.3 -14.14,-28.94 -15.75,-29.34 -17.22,-29.5 -18.68,-29.42 -20,-29.09 -21.15,-28.52 -22.2,-27.72 L 520,244.39 496.12,219 l -24.48,-24 -25,-22.28 -25.26,-20.44 -25.38,-18.4 -25.42,-16.24 -25.26,-13.93 -25,-11.51 -24.48,-9 -23.84,-6.38 -23.1,-3.74 -11.22,-0.87 -11,-0.2 -10.68,0.48 -10.44,1.15 -10.15,1.81 -9.83,2.48 -9.51,3.14 -9.17,3.79 -17.27,9.52 -15.75,12 -7.28,6.91 -6.86,7.5 -6.43,8.08 -6,8.62 -5.55,9.17 -5.1,9.68 -4.66,10.2 -4.17,10.65 -3.7,11.11 -3.13,11.54 -2.72,11.95 -2.28,12.32 -1.75,12.69 -1.25,13 -0.75,13.32 -0.25,13.61 0.25,13.84 0.75,14.06 3,28.66 5,29.18 6.91,29.46 8.8,29.49 10.65,29.28 12.43,28.83 14.14,28.13 15.75,27.21 17.27,26.06 18.68,24.69 20,23.11 21.15,21.36 22.2,19.4 23.02,17.31 23.87,15.06 24.48,12.69 25,10.22 25.26,7.65 25.42,5 12.69,1.58 12.7,0.85 12.66,0.17 12.6,-0.5 12.53,-1.17 12.43,-1.84 12.36,-2.51 12.17,-3.16 23.83,-8.31 23.1,-10.82 22.2,-13.27 21.15,-15.62 20,-17.82 18.68,-19.9 17.27,-21.79 15.75,-23.51 14.14,-25 12.43,-26.36 10.62,-27.44 8.8,-28.32 3.7,-14.42 3.21,-14.54 2.72,-14.72 2.23,-14.69 1.74,-14.75 1.26,-14.75 0.75,-14.74 L 720,355.39 719.75,340.8 719,326.32 717.75,312 716,297.82 l -2.24,-14 -2.72,-13.73 -3.21,-13.46 -3.7,-13.18 -4.13,-12.82 -4.63,-12.51 -5.13,-12.12 -5.55,-11.75 -6,-11.34 -6.43,-10.91 -6.86,-10.43 -7.28,-9.94 -7.68,-9.43 -8.07,-8.91 -17.27,-16.17 -18.68,-13.85 -20,-11.42 L 565.29,83 554.29,79.52 543.07,76.7 531.63,74.54 520,73 l -11.85,-0.82 -12,-0.15 -12.15,0.52 -12.31,1.19 -25,4.39 -25.26,7 -25.43,9.62 -25.42,12.1 -25.26,14.5 -25,16.78 -24.48,18.92 -23.84,20.89 -23.1,22.71 -22.19,24.35 -21.15,25.74 -20,27 -18.66,27.87 -17.27,28.68 -15.75,29.19 -14.14,29.52 -12.43,29.49 -10.65,29.22 -8.8,28.8 -6.86,28.11 -5,27.17 -3,26 -0.75,12.51 -0.25,12.14 0.25,11.74 0.75,11.32 1.25,10.88 1.75,10.41 2.24,9.92 2.76,9.42 3.16,8.87 3.7,8.34 4.14,7.8 4.63,7.2 5.1,6.61 5.55,6 12.43,10.12 6.86,4.11 7.28,3.45 7.68,2.8 8.07,2.14 8.45,1.47 8.82,0.8 9.17,0.13 9.51,-0.55 20,-3.1 21.15,-5.75 22.2,-8.37 23.1,-10.91 23.87,-13.35 24.48,-15.69 25,-17.91 25.26,-20 25.39,-21.81 25.42,-23.53 25.26,-25.09 25,-26.4 24.44,-27.51 23.88,-28.36 23.1,-29 22.2,-29.36 21.15,-29.51 20,-29.41 18.68,-29.06 17.27,-28.47 15.75,-27.66 14.14,-26.6 12.43,-25.32 10.65,-23.85 8.8,-22.16 6.91,-20.3 5,-18.27 3,-16.09 1,-13.76 -0.25,-6 -0.83,-5.32 -1.25,-4.72 -1.75,-4.09 -2.24,-3.43 -2.72,-2.78 -3.21,-2.11 -3.7,-1.45 -4.13,-0.78 -4.63,-0.1 -10.65,1.81 -12.43,4.48 -14.14,7.11 -15.75,9.69 -17.3,12.18 -18.68,14.58 -20,16.86 -21.15,19 -22.2,21 -47,47.14 -49.44,52.78 -50.63,56.62 -50.68,58.71 -49.44,58.75 -90.32,110 -71.68,88.08 -26.57,32 L 87.86,705.38 76,717.69 72.25,720 72,719.41 l 1,-3.19 3,-5.85 11.87,-19.45 19.45,-29.21 26.57,-38 33,-45.54 38.66,-51.58 43.35,-55.89 47,-58.37 49.44,-58.91 50.66,-57.54 50.68,-54.18 25,-25.28 24.48,-23.79 23.84,-22.11 23.1,-20.23 22.2,-18.19 21.15,-16 20,-13.69 18.65,-11.26 17.27,-8.72 15.75,-6.12 14.14,-3.46 12.43,-0.79 5.55,0.61 5.1,1.29 4.63,2 4.17,2.62 3.7,3.27 3.21,3.93 2.72,4.57 2.23,5.16 1.74,5.83 1.25,6.44 0.75,7 0.25,7.62 -1,16.93 -3,19.06 -5,21 -6.91,22.83 -8.8,24.43 -10.65,25.84 -12.43,27 -14.14,28 -15.75,28.73 -17.21,29.29 -18.68,29.49 -20,29.48 -21.15,29.25 -22.2,28.77 -23.1,28 -23.87,27.1 -24.48,25.92 -25,24.54 -25.2,22.94 -25.42,21.19 -25.42,19.2 -25.26,17.08 -25,14.82 -24.48,12.44 -23.84,9.95 -23.1,7.38 -22.2,4.75 -21.15,2.09 H 195.4 l -9.83,-0.63 -9.5,-1.27 -9.17,-2 -8.82,-2.64 -8.45,-3.3 -8.07,-4 -7.68,-4.59 -14.14,-11.08 -6.43,-6.39 -6,-7.06 -5.55,-7.64 -5.1,-8.21 L 92,652.32 87.86,643 84.16,633.2 81,622.93 78.28,612.17 76,601 74.26,589.36 73.01,577.36 72.26,564.95 72,552.09 72.25,539 73,525.61 l 3,-27.55 5,-28.4 6.91,-29 8.8,-29.38 10.65,-29.51 12.43,-29.39 14.14,-29 15.75,-28.43 17.27,-27.59 18.68,-26.52 20,-25.23 21.15,-23.73 22.2,-22.05 23.02,-20.2 23.87,-18.12 24.48,-15.93 25,-13.6 25.26,-11.17 25.39,-8.63 25.42,-6 12.66,-2 12.6,-1.36 12.53,-0.68 h 12.43 l 12.31,0.66 12.17,1.33 12,2 11.88,2.6 11.66,3.32 11.44,4 22.2,9.86 21.15,12.35 20,14.74 18.68,17 17.27,19.13 15.75,21.09 7.28,11.23 6.86,11.66 6.43,12.05 6,12.43 5.55,12.78 5.1,13.1 4.63,13.4 4.17,13.66 3.7,13.91 3.21,14.11 2.72,14.3 2.2,14.44 1.74,14.57 1.26,14.66 0.75,14.73 0.25,14.75 -0.25,14.75 -0.75,14.73 -1.25,14.66 -1.75,14.57 -2.24,14.45 -2.72,14.3 -3.21,14.11 -3.7,13.91 -4.13,13.66 -4.63,13.4 -5.1,13.1 -5.55,12.78 -6,12.43 -6.43,12 -6.86,11.66 -7.28,11.23 -15.75,21.09 -17.3,19.17 -18.68,17 -20,14.74 -21.15,12.35 -22.18,9.91 -11.44,4 -11.65,3.27 -11.85,2.66 -12,2 -12.15,1.33 -12.31,0.66 h -12.48 l -12.53,-0.68 -12.6,-1.36 -12.66,-2 -25.42,-6 -25.42,-8.63 -25.26,-11.25 -25,-13.6 -24.48,-15.93 -23.84,-18.1 -23.1,-20.16 -22.2,-22.05 -21.15,-23.73 -20,-25.23 -18.65,-26.52 -17.27,-27.59 -15.75,-28.43 -14.14,-29 -12.43,-29.39 -10.65,-29.53 -8.8,-29.38 -6.91,-29 -5,-28.4 -3,-27.55 L 72.25,253 72,239.91 72.25,227.14 73,214.73 l 1.25,-12 1.75,-11.68 2.24,-11.22 2.76,-10.76 3.21,-10.3 3.7,-9.8 4.09,-9.29 4.63,-8.76 5.1,-8.21 5.55,-7.64 6,-7.06 6.43,-6.46 14.14,-11.08 7.68,-4.59 8.07,-3.95 8.45,-3.3 8.85,-2.63 9.17,-2 9.51,-1.31 9.83,-0.63 h 10.15 l 21.15,2.09 22.2,4.75 23.09,7.42 23.87,10 24.48,12.44 25,14.82 25.26,17.08 25.39,19.15 25.42,21.19 25.26,22.94 25,24.54 24.48,25.92 23.84,27.07 23.1,28 22.2,28.77 21.15,29.25 20,29.48 18.68,29.47 17.27,29.22 15.75,28.73 14.14,28 12.43,27 10.65,25.84 8.8,24.43 6.91,22.83 5,21 3,19.06 1,16.93 -0.25,7.62 -0.75,7 -1.25,6.44 -1.83,5.95 -2.24,5.21 -2.72,4.57 -3.21,3.93 -3.7,3.27 -4.13,2.62 -4.66,1.91 -5.1,1.29 -5.55,0.61 -12.43,-0.79 -14.14,-3.46 -15.75,-6.12 -17.27,-8.72 -18.68,-11.21 -20,-13.69 -21.15,-16 -22.2,-18.19 -23.07,-20.24 -23.87,-22.11 -24.48,-23.79 -25,-25.28 -50.65,-54.18 -50.68,-57.49 -49.44,-58.91 -47,-58.37 -43.35,-55.89 -38.63,-51.58 -33,-45.54 -26.57,-38 L 87.86,101.13 76,81.68 l -3,-5.85 -1,-3.19 0.25,-0.59 0.75,0.08 3,2.18 11.86,12.31 19.45,22.57 26.57,32.05 71.68,88.08 90.32,110 49.44,58.68 50.68,58.71 50.68,56.67 49.44,52.78 47,47.14 22.2,21 21.15,19 20,16.86 18.68,14.58 17.27,12.18 15.75,9.69 14.14,7.11 12.43,4.48 10.6,1.8 4.63,-0.1 4.17,-0.78 3.7,-1.45 3.21,-2.11 2.72,-2.78 2.24,-3.43 1.74,-4.09 1.25,-4.76 0.75,-5.36 0.25,-6 -1,-13.76 -3,-16.09 -5,-18.27 -6.91,-20.3 -8.8,-22.16 -10.65,-23.85 -12.43,-25.32 -14.14,-26.6 -15.75,-27.66 -17.22,-28.45 -18.68,-29.06 -20,-29.41 -21.13,-29.51 -22.2,-29.36 -23.1,-29 -23.87,-28.34 -24.48,-27.48 -25,-26.4 L 421.42,213 396,189.47 l -25.42,-21.85 -25.26,-20 -25,-17.91 L 295.84,114.02 272,100.71 248.91,89.8 l -22.2,-8.37 -21.15,-5.75 -20,-3.1 -9.49,-0.58 -9.17,0.13 -8.82,0.8 -8.45,1.47 -8.07,2.14 -7.68,2.8 -7.28,3.45 -6.86,4.11 -12.43,10.15 -5.55,6 -5.1,6.61 -4.66,7.2 -4.17,7.78 -3.67,8.36 -3.16,8.87 -2.72,9.42 -2.28,9.92 -1.74,10.41 -1.26,10.88 -0.75,11.32 -0.25,11.74 0.25,12.13 0.75,12.51 3,26 5,27.17 6.91,28.11 8.8,28.8 10.65,29.27 12.43,29.49 14.14,29.47 15.75,29.19 17.27,28.68 18.68,27.94 20,26.95 21.08,25.73 22.2,24.33 23.09,22.73 23.88,20.94 24.48,18.92 25,16.78 25.26,14.5 25.38,12.05 25.42,9.6 25.26,7 25,4.39 12.32,1.21 12.17,0.52 12,-0.15 11.83,-0.82 11.66,-1.49 11.44,-2.16 11.22,-2.82 11,-3.48 21.15,-8.9 20,-11.42 18.68,-13.85 17.27,-16.16 8.07,-8.91 7.68,-9.43 7.28,-9.94 6.81,-10.44 6.43,-10.89 6,-11.34 5.55,-11.77 5.1,-12.15 4.66,-12.48 4.17,-12.86 3.7,-13.18 3.21,-13.46 2.72,-13.73 2.24,-14 L 717.75,480 719,465.68 719.75,451.2 720,436.61 719.75,421.93 719,407.19 717.75,392.44 716,377.69 713.77,363 l -2.72,-14.65 -3.21,-14.54 -3.7,-14.42 -8.8,-28.32 -10.65,-27.47 -12.43,-26.36 -14.14,-25 L 642.37,188.73 625.1,166.9 606.42,147 586.42,129.18 565.27,113.56 543.07,100.29 520,89.47 496.13,81.19 484,78 l -12.31,-2.5 -12.43,-1.84 -12.53,-1.17 -12.6,-0.5 -12.66,0.17 -12.7,0.85 -12.77,1.54 -25.42,5 -25.26,7.65 -25,10.22 -24.48,12.69 -23.84,15.09 -23.1,17.31 -22.2,19.4 -21.15,21.36 -20,23.11 -18.65,24.69 -17.27,26.06 -15.75,27.21 -14.14,28.13 -12.43,28.83 -10.65,29.28 -8.8,29.49 -6.86,29.46 -5,29.18 -3,28.66 -0.75,14.06 -0.25,13.84 0.25,13.6 0.75,13.32 1.25,13 1.75,12.7 2.24,12.32 2.76,11.95 3.21,11.54 3.7,11.11 4.09,10.65 4.63,10.18 5.1,9.68 5.55,9.17 6,8.62 6.43,8.08 6.86,7.5 7.28,6.91 15.75,12 17.27,9.52 9.17,3.79 9.51,3.14 9.83,2.48 10.15,1.81 10.47,1.17 10.71,0.48 11,-0.2 11.22,-0.87 23.1,-3.74 23.87,-6.4 24.48,-9 25,-11.51 25.26,-13.93 25.36,-16.22 25.42,-18.41 25.26,-20.44 25,-22.28 24.48,-24 23.84,-25.38 23.1,-26.68 22.2,-27.72 21.15,-28.52 20,-29.09 18.68,-29.42 17.27,-29.51 15.75,-29.34 14.14,-28.94 12.43,-28.3 10.65,-27.42 8.8,-26.31 6.91,-25 5,-23.46 3,-21.73 1,-19.83 -0.25,-9.14 -0.83,-8.6 -1.25,-8 -1.75,-7.54 -2.24,-6.89 -2.72,-6.3 -3.21,-5.68 -3.7,-5 -4.13,-4.47 -4.66,-3.72 -5.1,-3.12 -5.55,-2.45 -6,-1.79 -6.43,-1.13 -6.86,-0.51 -7.28,0.22 -15.75,2.45 -17.27,5.13 -18.68,7.74 -20,10.3 -21.15,12.78 -22.2,15.14 -23.07,17.38 -23.87,19.48 -24.49,21.38 -25,23.17 -25.22,24.83 -25.42,26.05 -25.42,27.24 -25.26,28.16 -25,28.85 -24.48,29.29 -47,59 -43.35,57.81 -38.59,54.69 -33,49.88 -26.57,43.35 -10.67,18.78 -8.8,16.62 -6.86,14.34 -5,11.94 -3,9.43 -1,6.84 0.25,2.44 0.75,1.76 1.25,1.1 1.75,0.43 5,-1.15 6.86,-3.85 8.8,-6.48 10.65,-9.08 26.57,-25.6 33,-34.8 38.66,-42.85 90.32,-104 100.14,-116.53 50.68,-58.26 49.44,-55.66 47,-51.21 43.35,-45.07 38.63,-37.46 17.27,-15.46 15.75,-13.11 14.14,-10.65 12.43,-8.09 10.65,-5.49 8.8,-2.82 3.7,-0.41 3.21,0.27 2.72,0.94 2.23,1.64 1.74,2.27 1.26,2.91 0.75,3.59 0.25,4.24 -1,10.38 -3,12.86 -5,15.22 -6.91,17.46 -8.8,19.55 -10.65,21.48 -12.38,23.22 -14.14,24.79 -15.75,26.21 -17.27,27.25 -18.68,28.19 -20,28.87 -21.15,29.3 -22.2,29.5 -23.07,29.44 -23.87,29.16 -24.48,28.61 -25,27.84 -25.23,26.84 -25.42,25.61 -25.42,24.17 -25.26,22.52 -25,20.71 -24.48,18.7 -23.84,16.55 -23.1,14.25 -22.2,11.85 -21.15,9.34 -20,6.75 -18.68,4.11 -17.24,1.44 -8.07,-0.29 -7.68,-1 -7.28,-1.63 -6.86,-2.3 -6.43,-3 -6,-3.61 -5.55,-4.17 -5.1,-4.9 -4.66,-5.55 -4.17,-6.14 -3.7,-6.75 -3.13,-7.35 -2.72,-7.91 -2.28,-8.48 -1.74,-9 -1.26,-9.56 -0.75,-10 -0.25,-10.57 1,-22.4 3,-24.07 5,-25.51 6.91,-26.76 8.8,-27.78 10.65,-28.57 12.43,-29.12 14.14,-29.44 15.75,-29.5 17.27,-29.32 18.68,-28.91 20,-28.24 21.15,-27.35 22.2,-26.23 23.02,-24.89 23.87,-23.35 24.48,-21.6 25,-19.69 25.26,-17.6 25.39,-15.38 25.42,-13 25.26,-10.56 25,-8 24.48,-5.39 23.84,-2.77 11.65,-0.36 11.44,0.31 11.22,1 11,1.65 10.69,2.31 10.44,3 10.15,3.64 9.83,4.28 18.68,10.46 17.27,12.94 15.75,15.3 7.28,8.49 6.86,9 6.43,9.56 6,10.06 5.55,10.54 5.1,11 4.66,11.46 4.17,11.85 3.7,12.23 3.21,12.61 2.72,12.93 2.2,13.27 1.74,13.53 1.26,13.79 0.75,14 0.25,14.2 -0.25,14.38 -0.75,14.52 -1.25,14.62 -1.75,14.69 -5,29.5 -6.91,29.45 -8.8,29.13 -10.65,28.6 -12.43,27.81 -14.09,26.79 -15.75,25.57 -17.27,24.11 -18.68,22.47 -20,20.63 -21.15,18.64 -22.2,16.47 L 520,687 l -23.87,11.76 -24.49,9.24 -25,6.67 -12.56,2.33 -12.66,1.68 -12.7,1 -12.72,0.32 -12.72,-0.34 -12.7,-1 -12.66,-1.66 -12.6,-2.34 -25,-6.67 -24.48,-9.25 L 272,687 248.9,672.83 226.7,656.36 205.55,637.72 185.55,617.09 166.9,594.58 149.63,570.47 133.88,544.9 119.74,518.11 107.31,490.3 96.66,461.7 87.86,432.57 81,403.12 76,373.62 74.26,358.93 73,344.31 72.25,329.8 72,315.42 72.25,301.22 73,287.22 74.25,273.43 76,259.89 78.24,246.64 81,233.71 84.21,221.1 87.91,208.87 92,197 l 4.63,-11.44 5.1,-11 5.58,-10.56 6,-10.06 6.43,-9.56 6.86,-9 7.28,-8.49 15.75,-15.3 17.27,-12.94 18.68,-10.48 9.83,-4.28 10.15,-3.64 10.44,-3 10.71,-2.25 11,-1.65 11.22,-1 11.42,-0.35 11.66,0.36 23.87,2.73 24.48,5.39 25,8 25.26,10.56 25.42,13 25.42,15.38 25.26,17.6 25,19.69 24.48,21.6 23.8,23.39 23.1,24.89 22.2,26.23 21.15,27.35 20,28.24 18.68,28.91 17.27,29.32 15.75,29.5 14.14,29.44 12.43,29.12 10.65,28.57 8.8,27.78 6.91,26.76 5,25.51 3,24.07 1,22.4 -0.25,10.53 -0.75,10 -1.25,9.54 -1.74,9 -2.24,8.48 -2.72,7.91 -3.21,7.35 -3.7,6.75 -4.22,6.2 -4.63,5.53 -5.1,4.9 -5.55,4.27 -6,3.61 -6.43,3 -6.86,2.3 -7.28,1.63 -7.68,1 -8.07,0.29 -17.27,-1.44 -18.68,-4.11 -20,-6.75 L 565.3,698.44 543.1,686.59 520,672.26 496.13,655.71 471.64,637 446.64,616.29 421.38,593.77 396,569.61 370.58,544 l -25.26,-26.84 -25,-27.84 -24.48,-28.61 -23.84,-29.16 -23.1,-29.44 -22.2,-29.5 -21.15,-29.3 -20,-28.87 L 166.9,286.25 149.63,259 133.88,232.86 119.74,208 107.31,184.77 96.66,163.33 87.86,143.78 81,126.32 76,111.1 73,98.24 72,87.86 72.25,83.62 73,80 74.25,77.06 76,74.82 78.24,73.21 81,72.27 84.16,72 l 3.7,0.41 8.8,2.82 10.65,5.49 12.43,8.09 14.14,10.65 15.75,13.11 17.27,15.43 38.66,37.43 43.35,45.07 47,51.21 49.44,55.66 50.65,58.29 100.12,116.58 90.32,104 38.66,42.76 33,34.8 26.57,25.6 10.65,9.08 8.8,6.48 6.91,3.84 5,1.15 1.74,-0.43 1.25,-1.1 0.75,-1.76 0.25,-2.44 -1,-6.84 -3.02,-9.38 -5,-11.93 -6.91,-14.34 -8.8,-16.62 -10.65,-18.78 -26.52,-43.33 -33,-49.88 -38.66,-54.74 -43.35,-57.81 -47,-59 -24.47,-29.27 -25,-28.85 L 421.38,285.29 396,258.05 370.58,232 345.32,207.26 320.32,184.09 295.84,162.67 272,143.14 248.9,125.76 226.7,110.62 205.56,97.84 185.56,87.54 166.9,79.8 149.63,74.68 133.88,72.23 126.6,72 l -6.86,0.45 -6.43,1.13 -6,1.79 -5.55,2.45 -5.1,3.18 -4.66,3.72 -4.17,4.42 -3.7,5 -3.13,5.73 -2.72,6.3 -2.28,6.89 -1.74,7.49 -1.25,8 -0.75,8.61 -0.26,9.19 1,19.83 3,21.73 5,23.46 6.91,25 8.8,26.31 10.65,27.42 12.43,28.3 14.14,28.94 15.75,29.34 17.27,29.51 18.68,29.42 20,29.09 21.15,28.52 22.2,27.72 23.02,26.67 23.88,25.39 24.48,24 25,22.28 25.26,20.44 25.38,18.4 25.42,16.24 25.26,13.93 25,11.51 24.48,9 23.87,6.4 23.1,3.74 11.22,0.87 11,0.2 10.71,-0.48 10.44,-1.15 10.15,-1.81 9.83,-2.48 9.51,-3.14 9.17,-3.79 17.27,-9.52 15.75,-12 7.28,-6.91 6.86,-7.5 6.43,-8.08 6,-8.62 5.55,-9.17 5.1,-9.68 4.6,-10.22 4.17,-10.65 3.7,-11.11 3.21,-11.54 2.72,-11.95 2.2,-12.32 1.74,-12.69 1.25,-13 0.75,-13.32 0.25,-13.6 -0.25,-13.84 -0.74,-14.07 -3,-28.66 -5,-29.18 -6.91,-29.46 -8.8,-29.49 -10.6,-29.28 -12.43,-28.83 -14.14,-28.13 -15.75,-27.21 -17.27,-26.06 -18.68,-24.69 -20,-23.11 -21.15,-21.36 -22.2,-19.4 L 520,125.2 496.13,110.14 471.64,97.45 l -25,-10.22 -25.26,-7.65 -25.42,-5 L 383.28,73 370.58,72.15 357.92,72 l -12.6,0.5 -12.53,1.17 -12.43,1.84 -12.31,2.49 -12.17,3.16 -23.88,8.31 -23.1,10.82 -22.2,13.27 -21.15,15.62 -20,17.82 -18.65,19.9 -17.27,21.79 -15.75,23.51 -14.14,25 -12.43,26.4 -10.65,27.45 -8.8,28.32 -3.7,14.42 L 81,348.33 78.23,363 76,377.69 74.26,392.44 73,407.19 72.25,421.93 72,436.61 72.25,451.2 73,465.68 74.25,480 76,494.18 l 2.24,14 2.76,13.69 3.21,13.46 3.7,13.18 4.09,12.86 4.63,12.51 5.1,12.15 5.55,11.75 6,11.34 6.46,10.88 6.86,10.43 7.28,9.94 7.68,9.43 8.07,8.91 17.27,16.16 18.68,13.85 20,11.42 21.15,8.9 11,3.48 11.22,2.82 11.44,2.16 11.61,1.5 11.85,0.82 12,0.15 12.17,-0.52 12.31,-1.19 25,-4.39 25.26,-7 25.42,-9.6 25.42,-12.1 25.26,-14.5 25,-16.78 L 496.12,635 520,614.06 543.1,591.35 565.29,567 l 21.15,-25.74 20,-26.95 18.68,-27.94 17.27,-28.68 15.75,-29.19 14.14,-29.47 12.43,-29.49 10.65,-29.27 8.8,-28.8 6.91,-28.11 5,-27.17 3,-26 0.75,-12.51 0.25,-12.13 -0.25,-11.74 -0.82,-11.31 -1.25,-10.88 -1.75,-10.41 -2.24,-9.92 -2.72,-9.42 -3.2,-8.87 -3.7,-8.34 -4.14,-7.8 -4.63,-7.2 -5.1,-6.61 -5.55,-6 -12.46,-10.12 -6.86,-4.11 -7.28,-3.45 -7.68,-2.8 -8.07,-2.14 -8.45,-1.43 -8.82,-0.8 -9.17,-0.2 -9.51,0.55 -20,3.1 -21.15,5.75 -22.2,8.37 -23.07,10.94 -23.87,13.35 -24.48,15.69 -25,17.91 -25.26,20 -25.39,21.81 -25.42,23.53 -25.26,25.09 -25,26.4 -24.44,27.51 -23.88,28.36 -23.1,29 -22.2,29.36 -21.15,29.51 -20,29.41 -18.65,29.04 -17.27,28.47 -15.75,27.66 -14.14,26.6 -12.43,25.32 -10.65,23.85 -8.8,22.16 L 81,641 l -5,18.27 -3,16.13 -1,13.76 0.25,6 0.75,5.34 1.25,4.72 1.75,4.09 2.24,3.43 2.76,2.78 3.21,2.11 3.7,1.45 4.17,0.78 4.63,0.1 10.65,-1.81 12.43,-4.48 14.14,-7.11 15.75,-9.69 17.27,-12.18 18.68,-14.58 20,-16.86 21.15,-19 22.2,-21 47,-47.14 49.44,-52.78 50.58,-56.62 50.68,-58.71 49.44,-58.75 90.32,-110 71.68,-88.08 26.57,-32.05 19.45,-22.57 11.86,-12.24 3.74,-2.26 0.25,0.59 -1,3.19 -3,5.85 -11.87,19.45 -19.45,29.21 -26.57,38 -33,45.54 -38.66,51.58 -43.35,55.89 -47,58.37 -49.44,58.91 -50.65,57.49 -50.68,54.18 -25,25.28 -24.48,23.79 -23.84,22.11 -23.1,20.23 -22.2,18.19 -21.15,16 -20,13.69 -18.65,11.26 -17.27,8.72 -15.75,6.12 -14.14,3.46 -12.43,0.79 -5.55,-0.61 L 96.66,718 92,716.09 87.83,713.47 84.13,710.2 81,706.27 78.28,701.7 76,696.49 74.26,690.66 73,684.22 l -0.75,-7 -0.25,-7.66 1,-16.93 3,-19.06 5,-21 6.91,-22.83 8.8,-24.43 10.65,-25.84 12.43,-27 14.14,-28 15.75,-28.73 17.27,-29.22 18.63,-29.52 20,-29.48 21.15,-29.25 22.2,-28.77 23.1,-28 23.87,-27.1 24.48,-25.92 25,-24.54 25.2,-22.94 25.42,-21.19 25.42,-19.2 25.26,-17.08 25,-14.82 24.48,-12.44 23.87,-10 23.1,-7.38 22.2,-4.75 21.15,-2.09 h 10.15 l 9.83,0.63 9.47,1.32 9.17,2 8.82,2.64 8.45,3.3 8.07,3.95 7.68,4.59 14.14,11.08 6.43,6.46 6,7.06 5.55,7.64 5.1,8.21 4.63,8.76 4.17,9.29 3.7,9.8 3.21,10.3 2.72,10.76 2.23,11.21 1.74,11.64 1.25,12 0.75,12.41 0.25,12.77 -0.24,13.13 -0.75,13.39 -3,27.55 -5,28.4 -6.91,29 -8.8,29.38 -10.65,29.51 -12.43,29.39 -14.14,29 -15.75,28.43 -17.22,27.63 -18.68,26.52 -20,25.23 -21.15,23.73 -22.2,22.05 -23.07,20.16 -23.87,18.12 -24.48,15.93 -25,13.6 -25.26,11.17 -25.39,8.63 -25.42,6 -12.66,2 -12.6,1.36 -12.53,0.68 h -12.43 l -12.31,-0.66 -12.17,-1.33 -12,-2 -11.88,-2.6 -11.65,-3.27 -11.44,-4 -22.2,-9.86 -21.15,-12.35 -20,-14.74 -18.66,-17.05 -17.27,-19.13 -15.75,-21.09 -7.28,-11.23 -6.86,-11.66 -6.43,-12 -6,-12.43 -5.55,-12.78 -5.1,-13.1 L 92,525.14 87.83,511.48 84.13,497.57 81,483.46 78.28,469.16 76,454.71 74.26,440.14 73,425.48 72.25,410.75 72,396 72.25,381.25 73,366.52 74.25,351.86 76,337.29 l 2.24,-14.45 2.76,-14.3 3.21,-14.11 3.7,-13.91 4.09,-13.66 4.63,-13.4 5.1,-13.1 5.55,-12.78 6,-12.43 6.43,-12.05 6.86,-11.66 7.28,-11.23 15.75,-21.09 17.3,-19.12 18.68,-17 20,-14.74 21.15,-12.35 22.18,-9.91 11.44,-4 11.65,-3.27 11.85,-2.66 12,-2 12.17,-1.33 12.31,-0.66 h 12.43 l 12.53,0.68 12.6,1.36 12.66,2 25.42,6 25.42,8.63 25.29,11.25 25,13.6 24.48,15.93 23.84,18.1 23.1,20.16 22.2,22.05 21.15,23.73 20,25.23 18.68,26.52 17.27,27.59 15.75,28.43 14.14,29 12.43,29.39 10.65,29.51 8.8,29.38 6.91,29 5,28.4 3,27.55 0.75,13.39 0.25,13.09 -0.25,12.77 -0.83,12.45 -1.25,12 -1.75,11.73 -2.24,11.22 -2.72,10.76 -3.21,10.3 -3.7,9.8 -4.13,9.24 -4.63,8.76 -5.1,8.21 -5.55,7.64 -6,7.06 -6.43,6.46 -14.14,11.08 -7.68,4.59 -8.07,4 -8.45,3.3 -8.85,2.58 -9.17,2 -9.51,1.31 -9.83,0.63 h -10.15 l -21.15,-2.09 -22.2,-4.75 -23.09,-7.42 -23.87,-9.95 -24.48,-12.44 -25,-14.82 L 421.39,651.39 396,632.19 370.58,611 345.32,588.06 320.32,563.52 295.84,537.6 272,510.53 l -23.1,-28 -22.2,-28.77 -21.15,-29.25 -20,-29.48 -18.65,-29.52 -17.27,-29.22 -15.75,-28.73 -14.14,-28 -12.43,-27 -10.65,-25.85 -8.8,-24.43 -6.86,-22.83 -5,-21 -3,-19.06 -1,-16.93 0.25,-7.62 0.75,-7 1.25,-6.44 1.75,-5.89 2.24,-5.21 2.76,-4.57 3.21,-3.93 3.7,-3.27 4.09,-2.62 4.63,-2 5.1,-1.29 5.55,-0.61 12.43,0.79 14.14,3.46 15.75,6.12 17.27,8.72 18.68,11.25 20,13.69 21.15,16 22.2,18.19 23.1,20.29 23.87,22.11 24.48,23.79 25,25.28 50.65,54.18 50.68,57.49 49.44,58.91 47,58.37 43.35,55.89 38.66,51.58 33,45.54 26.57,38 19.45,29.21 11.85,19.45 3,5.85 1,3.19 -0.25,0.59 -0.75,-0.08 -3,-2.18 -11.87,-12.31 -19.45,-22.57 -26.57,-32 -71.68,-88.08 -90.32,-110 L 446.68,394 396,335.29 l -50.68,-56.67 -49.44,-52.78 -47,-47.14 -22.2,-21 -21.15,-19 -20,-16.86 L 166.9,107.31 149.63,95.13 133.88,85.44 119.74,78.33 107.31,73.85 96.66,72 92.03,72.1 87.86,72.88 84.16,74.33 81,76.48 78.28,79.26 76,82.69 74.26,86.78 73,91.5 l -0.75,5.36 -0.25,6 1,13.76 3,16.09 5,18.29 6.91,20.3 8.8,22.16 10.65,23.85 12.43,25.32 14.14,26.6 15.75,27.66 17.27,28.47 18.68,29.06 20,29.41 21.15,29.51 22.2,29.36 23.1,29 23.8,28.3 24.48,27.48 25,26.4 25.22,25.12 25.42,23.53 25.42,21.85 25.26,20 25,17.91 24.48,15.69 23.84,13.31 23.1,10.91 22.2,8.37 21.15,5.75 20,3.1 9.51,0.55 9.17,-0.13 8.82,-0.8 8.45,-1.47 8.07,-2.14 7.68,-2.8 7.28,-3.45 6.86,-4.11 12.4,-10.07 5.55,-6 5.1,-6.61 4.63,-7.2 4.17,-7.78 3.7,-8.34 3.21,-8.89 2.72,-9.42 2.24,-9.92 1.74,-10.41 1.25,-10.93 0.75,-11.32 0.25,-11.74 -0.25,-12.13 -0.75,-12.51 -3,-26 -5,-27.17 -6.91,-28.11 -8.8,-28.8 -10.65,-29.27 -12.38,-29.45 -14.14,-29.47 -15.75,-29.19 -17.27,-28.73 -18.68,-27.94 -20,-27 L 565.29,225 543.09,200.67 520,177.94 l -23.87,-20.89 -24.48,-18.92 -25,-16.78 -25.26,-14.5 -25.39,-12.1 -25.42,-9.6 -25.26,-7 -25,-4.39 -12.31,-1.19 -12.13,-0.57 -12,0.15 L 272,73 l -11.66,1.49 -11.44,2.16 -11.22,2.82 -11,3.48 -21.15,8.9 -20,11.42 -18.63,13.85 -17.27,16.16 -8.07,8.91 -7.68,9.43 -7.28,9.94 -6.86,10.44 -6.43,10.89 -6,11.34 -5.55,11.77 -5.1,12.15 -4.66,12.48 -4.17,12.86 -3.7,13.18 -3.13,13.46 -2.72,13.73 -2.24,14 L 74.25,312 73,326.32 72.25,340.8 72,355.39 l 0.25,14.68 0.75,14.74 1.25,14.75 1.75,14.75 2.23,14.69 2.77,14.67 3.21,14.54 3.7,14.42 8.75,28.37 10.65,27.45 12.43,26.36 14.14,25 15.75,23.51 17.27,21.78 18.68,19.9 20,17.82 21.15,15.62 22.2,13.27 23.07,10.82 23.87,8.28 12.18,3.19 12.31,2.5 12.43,1.84 12.53,1.17 12.6,0.5 12.66,-0.17 12.7,-0.85 12.72,-1.54 25.42,-5 25.26,-7.65 25,-10.22 24.48,-12.69 23.84,-15.09 23.1,-17.31 22.2,-19.4 21.15,-21.36 20,-23.11 18.68,-24.69 17.27,-26.06 15.75,-27.21 14.14,-28.13 12.43,-28.83 10.65,-29.28 8.8,-29.49 6.91,-29.46 5,-29.18 3,-28.66 0.75,-14.06 0.25,-13.84 -0.25,-13.6 -0.83,-13.32 -1.25,-13 -1.75,-12.7 -2.24,-12.32 -2.72,-11.95 -3.21,-11.54 -3.7,-11.11 -4.13,-10.65 -4.63,-10.18 -5.1,-9.68 -5.55,-9.17 -6,-8.62 -6.43,-8.08 -6.86,-7.5 -7.28,-6.91 -15.75,-12 -17.3,-9.54 -9.17,-3.79 -9.51,-3.14 -9.83,-2.48 L 586.44,73.64 576,72.49 565.29,72 l -11,0.2 -11.22,0.87 -23.07,3.75 -23.87,6.4 -24.48,9 -25,11.51 -25.26,13.93 -25.39,16.22 -25.42,18.41 -25.26,20.44 -25,22.28 -24.48,24 -23.84,25.38 -23.1,26.68 -22.2,27.72 -21.15,28.52 -20,29.09 -18.65,29.42 -17.27,29.51 -15.75,29.34 -14.14,28.94 -12.43,28.3 -10.65,27.42 -8.8,26.31 -6.91,25 -5,23.46 -3,21.73 -1,19.83 0.25,9.14 0.8,8.6 1.25,8.05 1.75,7.49 2.24,6.89 2.72,6.3 3.21,5.68 3.7,5.05 4.13,4.42 4.63,3.77 5.1,3.12 5.55,2.45 6,1.79 6.43,1.13 6.86,0.45 7.28,-0.22 15.75,-2.45 17.27,-5.12 18.68,-7.74 20,-10.3 21.15,-12.78 22.2,-15.14 23.1,-17.38 23.87,-19.48 24.49,-21.38 25,-23.18 25.26,-24.74 L 396,534 l 25.42,-27.24 25.26,-28.16 25,-28.85 24.48,-29.29 47,-59 43.35,-57.81 38.66,-54.74 33,-49.88 26.57,-43.35 10.65,-18.78 8.8,-16.62 6.91,-14.34 4.9,-11.94 3,-9.43 1,-6.84 -0.25,-2.44 L 719,73.54 717.75,72.44 716,72 l -5,1.15 -6.86,3.85 -8.8,6.48 -10.65,9.08 -26.57,25.6 -33,34.8 -38.66,42.85 -90.32,104 -100.14,116.53 -50.68,58.26 -49.44,55.66 -47,51.21 -43.35,45.07 -38.63,37.46 -17.27,15.46 -15.75,13.11 -14.14,10.65 -12.43,8.09 -10.65,5.49 -8.8,2.82 -3.7,0.41 L 81,719.73 78.28,718.79 76,717.18 74.26,714.91 73,712 72.25,708.41 72,704.14 l 1,-10.38 3,-12.86 5,-15.22 6.91,-17.46 8.8,-19.55 10.65,-21.48 12.38,-23.19 14.14,-24.79 15.75,-26.21 17.27,-27.28 18.68,-28.19 20,-28.87 21.15,-29.3 22.2,-29.5 23.07,-29.41 23.87,-29.16 24.48,-28.61 25,-27.84 25.23,-26.84 25.42,-25.61 25.42,-24.17 25.26,-22.52 25,-20.71 24.48,-18.7 23.84,-16.55 23.1,-14.25 22.2,-11.85 21.15,-9.34 20,-6.75 18.68,-4.11 17.24,-1.44 8.07,0.29 7.68,1 7.28,1.63 6.86,2.3 6.43,3 6,3.61 5.55,4.17 5.1,4.9 4.66,5.55 4.17,6.14 3.7,6.75 3.21,7.35 2.72,7.91 2.24,8.48 1.74,9 1.25,9.54 0.75,10 0.25,10.53 -1,22.4 -3,24.07 -5,25.51 -6.89,26.87 -8.8,27.78 -10.65,28.52 -12.43,29.12 -14.14,29.44 -15.75,29.5 -17.27,29.32 -18.68,28.91 -20,28.24 -21.15,27.35 -22.2,26.23 -23.07,24.89 -23.87,23.35 -24.48,21.6 -25,19.69 -25.26,17.6 -25.39,15.38 -25.42,13 -25.26,10.56 -25,8 -24.48,5.39 -23.84,2.77 -11.66,0.36 -11.44,-0.31 -11.22,-1 -11,-1.65 -10.68,-2.31 -10.44,-3 -10.15,-3.64 -9.83,-4.28 -18.68,-10.46 -17.27,-12.94 -15.75,-15.3 -7.28,-8.49 -6.86,-9 -6.43,-9.62 -6,-10.06 -5.55,-10.54 -5.1,-11 L 92,595 87.83,583.15 84.13,570.92 81,558.29 78.28,545.36 76,532.11 74.26,518.58 73,504.79 72.25,490.79 72,476.58 72.25,462.2 73,447.69 74.25,433.07 76,418.38 l 5,-29.5 6.91,-29.45 8.8,-29.13 10.65,-28.6 12.43,-27.81 14.14,-26.79 15.75,-25.57 17.27,-24.11 18.63,-22.42 20,-20.63 21.15,-18.64 22.2,-16.47 L 272,105 295.87,93.24 320.36,84 l 25,-6.67 12.56,-2.33 12.66,-1.68 12.7,-1 L 396,72"
         transform="translate(-71.5,-71.5)"
         id="path886" />
    </g>
  </g>
</svg>
